%TF.GenerationSoftware,KiCad,Pcbnew,8.0.5*%
%TF.CreationDate,2024-10-26T17:45:05+02:00*%
%TF.ProjectId,LEDRing,4c454452-696e-4672-9e6b-696361645f70,rev?*%
%TF.SameCoordinates,Original*%
%TF.FileFunction,Copper,L1,Top*%
%TF.FilePolarity,Positive*%
%FSLAX46Y46*%
G04 Gerber Fmt 4.6, Leading zero omitted, Abs format (unit mm)*
G04 Created by KiCad (PCBNEW 8.0.5) date 2024-10-26 17:45:05*
%MOMM*%
%LPD*%
G01*
G04 APERTURE LIST*
G04 Aperture macros list*
%AMRoundRect*
0 Rectangle with rounded corners*
0 $1 Rounding radius*
0 $2 $3 $4 $5 $6 $7 $8 $9 X,Y pos of 4 corners*
0 Add a 4 corners polygon primitive as box body*
4,1,4,$2,$3,$4,$5,$6,$7,$8,$9,$2,$3,0*
0 Add four circle primitives for the rounded corners*
1,1,$1+$1,$2,$3*
1,1,$1+$1,$4,$5*
1,1,$1+$1,$6,$7*
1,1,$1+$1,$8,$9*
0 Add four rect primitives between the rounded corners*
20,1,$1+$1,$2,$3,$4,$5,0*
20,1,$1+$1,$4,$5,$6,$7,0*
20,1,$1+$1,$6,$7,$8,$9,0*
20,1,$1+$1,$8,$9,$2,$3,0*%
G04 Aperture macros list end*
%TA.AperFunction,SMDPad,CuDef*%
%ADD10R,1.600000X2.400000*%
%TD*%
%TA.AperFunction,SMDPad,CuDef*%
%ADD11R,0.600000X2.400000*%
%TD*%
%TA.AperFunction,SMDPad,CuDef*%
%ADD12R,0.600000X0.500000*%
%TD*%
%TA.AperFunction,SMDPad,CuDef*%
%ADD13R,2.400000X1.600000*%
%TD*%
%TA.AperFunction,SMDPad,CuDef*%
%ADD14R,2.400000X0.600000*%
%TD*%
%TA.AperFunction,SMDPad,CuDef*%
%ADD15R,0.500000X0.600000*%
%TD*%
%TA.AperFunction,SMDPad,CuDef*%
%ADD16RoundRect,0.250000X-0.735230X-0.290580X-0.413836X-0.673602X0.735230X0.290580X0.413836X0.673602X0*%
%TD*%
G04 APERTURE END LIST*
D10*
%TO.P,D3,1,K*%
%TO.N,Net-(D3-K)*%
X150575000Y-108800000D03*
D11*
%TO.P,D3,2,A*%
%TO.N,Net-(D2-K)*%
X148925000Y-108800000D03*
D12*
X148625000Y-108800000D03*
%TD*%
D13*
%TO.P,D2,1,K*%
%TO.N,Net-(D2-K)*%
X140500000Y-100575000D03*
D14*
%TO.P,D2,2,A*%
%TO.N,Net-(D1-K)*%
X140500000Y-98925000D03*
D15*
X140500000Y-98625000D03*
%TD*%
D13*
%TO.P,D1,1,K*%
%TO.N,Net-(D1-K)*%
X159500000Y-99425000D03*
D14*
%TO.P,D1,2,A*%
%TO.N,Net-(D1-A)*%
X159500000Y-101075000D03*
D15*
X159500000Y-101375000D03*
%TD*%
D16*
%TO.P,J2,1,Pin_1*%
%TO.N,Net-(D3-K)*%
X154900000Y-107400000D03*
%TD*%
%TO.P,J1,1,Pin_1*%
%TO.N,Net-(D1-A)*%
X158500000Y-104400000D03*
%TD*%
%TA.AperFunction,Conductor*%
%TO.N,Net-(D1-K)*%
G36*
X150376529Y-91205433D02*
G01*
X151120932Y-91243887D01*
X151124731Y-91244181D01*
X151866190Y-91320992D01*
X151869943Y-91321478D01*
X152606483Y-91436443D01*
X152610178Y-91437118D01*
X153339810Y-91589928D01*
X153343487Y-91590798D01*
X154054888Y-91778572D01*
X154064231Y-91781038D01*
X154067898Y-91782108D01*
X154777838Y-92009268D01*
X154781444Y-92010525D01*
X155478742Y-92274017D01*
X155482278Y-92275459D01*
X156165031Y-92574564D01*
X156168488Y-92576186D01*
X156834906Y-92910117D01*
X156838272Y-92911913D01*
X157486603Y-93279796D01*
X157489847Y-93281750D01*
X157989229Y-93600248D01*
X158118323Y-93682582D01*
X158121484Y-93684714D01*
X158728465Y-94117450D01*
X158731490Y-94119728D01*
X159315317Y-94583184D01*
X159318214Y-94585608D01*
X159877392Y-95078601D01*
X159880167Y-95081179D01*
X160413127Y-95602325D01*
X160415784Y-95605061D01*
X160571758Y-95774178D01*
X160921143Y-96153003D01*
X160923659Y-96155876D01*
X161400083Y-96729165D01*
X161402447Y-96732164D01*
X161762815Y-97214395D01*
X161848658Y-97329266D01*
X161850864Y-97332383D01*
X162265664Y-97951692D01*
X162267707Y-97954918D01*
X162589026Y-98492735D01*
X162599500Y-98530688D01*
X162599500Y-100220500D01*
X162577826Y-100272826D01*
X162525500Y-100294500D01*
X156865602Y-100294500D01*
X156813276Y-100272826D01*
X156791602Y-100220500D01*
X156791656Y-100217665D01*
X156792483Y-100196071D01*
X156800000Y-100000000D01*
X156780047Y-99479465D01*
X156720307Y-98961985D01*
X156621129Y-98450596D01*
X156483095Y-97948300D01*
X156453961Y-97867183D01*
X156307021Y-97458055D01*
X156307020Y-97458054D01*
X156307017Y-97458044D01*
X156093926Y-96982705D01*
X155845073Y-96525073D01*
X155605035Y-96154411D01*
X155561924Y-96087839D01*
X155561923Y-96087838D01*
X155561920Y-96087833D01*
X155246126Y-95673551D01*
X154899547Y-95284659D01*
X154685429Y-95078591D01*
X154524216Y-94923438D01*
X154122339Y-94592013D01*
X154122333Y-94592008D01*
X153696259Y-94292315D01*
X153696255Y-94292313D01*
X153696250Y-94292309D01*
X153248507Y-94026123D01*
X153248493Y-94026116D01*
X152781675Y-93794978D01*
X152781662Y-93794973D01*
X152298514Y-93600247D01*
X152298495Y-93600240D01*
X151801892Y-93443081D01*
X151801878Y-93443077D01*
X151801874Y-93443076D01*
X151801867Y-93443074D01*
X151801862Y-93443073D01*
X151294671Y-93324385D01*
X151294665Y-93324384D01*
X151294662Y-93324383D01*
X151294660Y-93324383D01*
X150987917Y-93277004D01*
X150779848Y-93244866D01*
X150714923Y-93239881D01*
X150260459Y-93204990D01*
X149739541Y-93204990D01*
X149335572Y-93236004D01*
X149220151Y-93244866D01*
X148705334Y-93324384D01*
X148705328Y-93324385D01*
X148198137Y-93443073D01*
X148198107Y-93443081D01*
X147701504Y-93600240D01*
X147701485Y-93600247D01*
X147218337Y-93794973D01*
X147218324Y-93794978D01*
X146751506Y-94026116D01*
X146751492Y-94026123D01*
X146303749Y-94292309D01*
X145877676Y-94592001D01*
X145877660Y-94592013D01*
X145475783Y-94923438D01*
X145100451Y-95284661D01*
X144753881Y-95673542D01*
X144438079Y-96087834D01*
X144438075Y-96087839D01*
X144154925Y-96525074D01*
X144154925Y-96525075D01*
X143906082Y-96982689D01*
X143906065Y-96982723D01*
X143692986Y-97458037D01*
X143692978Y-97458055D01*
X143516909Y-97948285D01*
X143516905Y-97948300D01*
X143389559Y-98411705D01*
X143378870Y-98450601D01*
X143378869Y-98450605D01*
X143279694Y-98961977D01*
X143279693Y-98961980D01*
X143248290Y-99234002D01*
X143220758Y-99283497D01*
X143166291Y-99299027D01*
X143160344Y-99298094D01*
X143155412Y-99297113D01*
X143142275Y-99294500D01*
X137474500Y-99294500D01*
X137422174Y-99272826D01*
X137400500Y-99220500D01*
X137400500Y-98530688D01*
X137410974Y-98492735D01*
X137557460Y-98247550D01*
X137732298Y-97954909D01*
X137734318Y-97951718D01*
X138149154Y-97332355D01*
X138151320Y-97329294D01*
X138597569Y-96732142D01*
X138599898Y-96729187D01*
X139076350Y-96155864D01*
X139078845Y-96153015D01*
X139584234Y-95605040D01*
X139586848Y-95602349D01*
X140119851Y-95081161D01*
X140122587Y-95078619D01*
X140681803Y-94585591D01*
X140684662Y-94583200D01*
X141268527Y-94119714D01*
X141271516Y-94117464D01*
X141878533Y-93684702D01*
X141881651Y-93682598D01*
X142510169Y-93281739D01*
X142513379Y-93279806D01*
X143161743Y-92911904D01*
X143165073Y-92910127D01*
X143831521Y-92576180D01*
X143834956Y-92574569D01*
X144517726Y-92275456D01*
X144521257Y-92274017D01*
X145218567Y-92010520D01*
X145222147Y-92009272D01*
X145932111Y-91782104D01*
X145935758Y-91781040D01*
X146656521Y-91590796D01*
X146660180Y-91589930D01*
X147389827Y-91437117D01*
X147393509Y-91436444D01*
X148130061Y-91321478D01*
X148133804Y-91320992D01*
X148875271Y-91244181D01*
X148879064Y-91243887D01*
X149623471Y-91205433D01*
X149627289Y-91205334D01*
X150372711Y-91205334D01*
X150376529Y-91205433D01*
G37*
%TD.AperFunction*%
%TD*%
%TA.AperFunction,Conductor*%
%TO.N,Net-(D1-A)*%
G36*
X162577826Y-100521674D02*
G01*
X162599500Y-100574000D01*
X162599500Y-101529705D01*
X162596277Y-101551305D01*
X162548917Y-101706481D01*
X162407362Y-102170283D01*
X162406087Y-102174088D01*
X162163832Y-102836798D01*
X162162352Y-102840528D01*
X161884542Y-103489094D01*
X161882863Y-103492739D01*
X161570286Y-104125328D01*
X161568411Y-104128876D01*
X161222013Y-104743567D01*
X161219949Y-104747008D01*
X160840735Y-105342021D01*
X160838487Y-105345346D01*
X160427571Y-105918931D01*
X160425146Y-105922129D01*
X159983743Y-106472590D01*
X159981149Y-106475651D01*
X159510555Y-107001375D01*
X159507798Y-107004292D01*
X159369963Y-107142413D01*
X159317660Y-107164141D01*
X159265311Y-107142521D01*
X159261426Y-107138330D01*
X156136634Y-103492739D01*
X155985503Y-103316419D01*
X155967906Y-103262584D01*
X155976677Y-103232911D01*
X156093926Y-103017295D01*
X156307017Y-102541956D01*
X156483095Y-102051700D01*
X156621129Y-101549404D01*
X156720307Y-101038015D01*
X156774854Y-100565512D01*
X156802386Y-100516018D01*
X156848366Y-100500000D01*
X162525500Y-100500000D01*
X162577826Y-100521674D01*
G37*
%TD.AperFunction*%
%TD*%
%TA.AperFunction,Conductor*%
%TO.N,Net-(D2-K)*%
G36*
X143194601Y-99521674D02*
G01*
X143216275Y-99574000D01*
X143216221Y-99576834D01*
X143200000Y-99999999D01*
X143219953Y-100520537D01*
X143279693Y-101038016D01*
X143279694Y-101038022D01*
X143377192Y-101540746D01*
X143378871Y-101549404D01*
X143422037Y-101706481D01*
X143516909Y-102051714D01*
X143692978Y-102541944D01*
X143692986Y-102541962D01*
X143906065Y-103017276D01*
X143906082Y-103017310D01*
X144154925Y-103474924D01*
X144154925Y-103474925D01*
X144438075Y-103912160D01*
X144438080Y-103912167D01*
X144753874Y-104326449D01*
X145100453Y-104715341D01*
X145302228Y-104909530D01*
X145475783Y-105076561D01*
X145773520Y-105322103D01*
X145877667Y-105407992D01*
X146303741Y-105707685D01*
X146303746Y-105707688D01*
X146303749Y-105707690D01*
X146751492Y-105973876D01*
X146751499Y-105973879D01*
X146751505Y-105973883D01*
X146994467Y-106094181D01*
X147218324Y-106205021D01*
X147218328Y-106205022D01*
X147218333Y-106205025D01*
X147701485Y-106399752D01*
X147701504Y-106399759D01*
X148103333Y-106526925D01*
X148198126Y-106556924D01*
X148705340Y-106675617D01*
X149220153Y-106755134D01*
X149230051Y-106755893D01*
X149280564Y-106781506D01*
X149298172Y-106835337D01*
X149296968Y-106844109D01*
X149294500Y-106856519D01*
X149294500Y-111000291D01*
X149272826Y-111052617D01*
X149220500Y-111074291D01*
X149214486Y-111074046D01*
X148585421Y-111022755D01*
X148581432Y-111022321D01*
X147882320Y-110926941D01*
X147878360Y-110926291D01*
X147185446Y-110793153D01*
X147181527Y-110792289D01*
X146496862Y-110621786D01*
X146492995Y-110620711D01*
X145818570Y-110413339D01*
X145814768Y-110412056D01*
X145152583Y-110168431D01*
X145148856Y-110166944D01*
X144500846Y-109887778D01*
X144497205Y-109886091D01*
X143865275Y-109572203D01*
X143861730Y-109570320D01*
X143247769Y-109222649D01*
X143244332Y-109220578D01*
X142650100Y-108840122D01*
X142646780Y-108837867D01*
X142074053Y-108425761D01*
X142070861Y-108423330D01*
X141521314Y-107980780D01*
X141518279Y-107978198D01*
X140993517Y-107506496D01*
X140990607Y-107503734D01*
X140492201Y-107004292D01*
X140489444Y-107001375D01*
X140359778Y-106856519D01*
X140018845Y-106475646D01*
X140016256Y-106472590D01*
X139574843Y-105922116D01*
X139572438Y-105918944D01*
X139161499Y-105345327D01*
X139159276Y-105342040D01*
X138780044Y-104746998D01*
X138777986Y-104743567D01*
X138431588Y-104128876D01*
X138429713Y-104125328D01*
X138404026Y-104073344D01*
X138117136Y-103492739D01*
X138115457Y-103489094D01*
X137913371Y-103017310D01*
X137837639Y-102840509D01*
X137836174Y-102836816D01*
X137593906Y-102174071D01*
X137592643Y-102170300D01*
X137403723Y-101551306D01*
X137400500Y-101529705D01*
X137400500Y-99574000D01*
X137422174Y-99521674D01*
X137474500Y-99500000D01*
X143142275Y-99500000D01*
X143194601Y-99521674D01*
G37*
%TD.AperFunction*%
%TD*%
%TA.AperFunction,Conductor*%
%TO.N,Net-(D3-K)*%
G36*
X154574334Y-105129771D02*
G01*
X155110288Y-105761006D01*
X155977794Y-106782735D01*
X157530687Y-108611698D01*
X157548032Y-108665614D01*
X157522172Y-108716003D01*
X157517498Y-108719659D01*
X157353219Y-108837867D01*
X157349899Y-108840122D01*
X156755667Y-109220578D01*
X156752230Y-109222649D01*
X156138269Y-109570320D01*
X156134724Y-109572203D01*
X155502794Y-109886091D01*
X155499153Y-109887778D01*
X154851143Y-110166944D01*
X154847416Y-110168431D01*
X154185231Y-110412056D01*
X154181429Y-110413339D01*
X153507004Y-110620711D01*
X153503137Y-110621786D01*
X152818472Y-110792289D01*
X152814553Y-110793153D01*
X152121639Y-110926291D01*
X152117679Y-110926941D01*
X151418567Y-111022321D01*
X151414578Y-111022755D01*
X150711344Y-111080094D01*
X150707337Y-111080312D01*
X150002007Y-111099444D01*
X149997993Y-111099444D01*
X149571993Y-111087888D01*
X149520274Y-111064803D01*
X149500000Y-111013915D01*
X149500000Y-106856518D01*
X149521674Y-106804192D01*
X149574000Y-106782518D01*
X149579651Y-106782734D01*
X149739541Y-106795010D01*
X149739548Y-106795010D01*
X150260452Y-106795010D01*
X150260459Y-106795010D01*
X150779847Y-106755134D01*
X151294660Y-106675617D01*
X151801874Y-106556924D01*
X151956632Y-106507947D01*
X152298495Y-106399759D01*
X152298507Y-106399754D01*
X152298515Y-106399752D01*
X152781667Y-106205025D01*
X153248495Y-105973883D01*
X153696259Y-105707685D01*
X154122333Y-105407992D01*
X154470844Y-105120576D01*
X154525002Y-105104006D01*
X154574334Y-105129771D01*
G37*
%TD.AperFunction*%
%TD*%
M02*
