%TF.GenerationSoftware,KiCad,Pcbnew,8.0.5*%
%TF.CreationDate,2024-10-26T17:45:05+02:00*%
%TF.ProjectId,LEDRing,4c454452-696e-4672-9e6b-696361645f70,rev?*%
%TF.SameCoordinates,Original*%
%TF.FileFunction,Legend,Top*%
%TF.FilePolarity,Positive*%
%FSLAX46Y46*%
G04 Gerber Fmt 4.6, Leading zero omitted, Abs format (unit mm)*
G04 Created by KiCad (PCBNEW 8.0.5) date 2024-10-26 17:45:05*
%MOMM*%
%LPD*%
G01*
G04 APERTURE LIST*
G04 Aperture macros list*
%AMRoundRect*
0 Rectangle with rounded corners*
0 $1 Rounding radius*
0 $2 $3 $4 $5 $6 $7 $8 $9 X,Y pos of 4 corners*
0 Add a 4 corners polygon primitive as box body*
4,1,4,$2,$3,$4,$5,$6,$7,$8,$9,$2,$3,0*
0 Add four circle primitives for the rounded corners*
1,1,$1+$1,$2,$3*
1,1,$1+$1,$4,$5*
1,1,$1+$1,$6,$7*
1,1,$1+$1,$8,$9*
0 Add four rect primitives between the rounded corners*
20,1,$1+$1,$2,$3,$4,$5,0*
20,1,$1+$1,$4,$5,$6,$7,0*
20,1,$1+$1,$6,$7,$8,$9,0*
20,1,$1+$1,$8,$9,$2,$3,0*%
G04 Aperture macros list end*
%ADD10C,0.150000*%
%ADD11C,0.000000*%
%ADD12C,0.120000*%
%ADD13R,1.600000X2.400000*%
%ADD14R,0.600000X2.400000*%
%ADD15R,0.600000X0.500000*%
%ADD16R,2.400000X1.600000*%
%ADD17R,2.400000X0.600000*%
%ADD18R,0.500000X0.600000*%
%ADD19C,1.000000*%
%ADD20RoundRect,0.250000X-0.735230X-0.290580X-0.413836X-0.673602X0.735230X0.290580X0.413836X0.673602X0*%
G04 APERTURE END LIST*
D10*
X145142857Y-92962295D02*
X145142857Y-92162295D01*
X145142857Y-92162295D02*
X145447619Y-92162295D01*
X145447619Y-92162295D02*
X145523809Y-92200390D01*
X145523809Y-92200390D02*
X145561904Y-92238485D01*
X145561904Y-92238485D02*
X145600000Y-92314676D01*
X145600000Y-92314676D02*
X145600000Y-92428961D01*
X145600000Y-92428961D02*
X145561904Y-92505152D01*
X145561904Y-92505152D02*
X145523809Y-92543247D01*
X145523809Y-92543247D02*
X145447619Y-92581342D01*
X145447619Y-92581342D02*
X145142857Y-92581342D01*
X145942857Y-92962295D02*
X145942857Y-92428961D01*
X145942857Y-92162295D02*
X145904761Y-92200390D01*
X145904761Y-92200390D02*
X145942857Y-92238485D01*
X145942857Y-92238485D02*
X145980952Y-92200390D01*
X145980952Y-92200390D02*
X145942857Y-92162295D01*
X145942857Y-92162295D02*
X145942857Y-92238485D01*
X146323809Y-92428961D02*
X146323809Y-92962295D01*
X146323809Y-92505152D02*
X146361904Y-92467057D01*
X146361904Y-92467057D02*
X146438094Y-92428961D01*
X146438094Y-92428961D02*
X146552380Y-92428961D01*
X146552380Y-92428961D02*
X146628571Y-92467057D01*
X146628571Y-92467057D02*
X146666666Y-92543247D01*
X146666666Y-92543247D02*
X146666666Y-92962295D01*
X147352381Y-92924200D02*
X147276190Y-92962295D01*
X147276190Y-92962295D02*
X147123809Y-92962295D01*
X147123809Y-92962295D02*
X147047619Y-92924200D01*
X147047619Y-92924200D02*
X147009523Y-92848009D01*
X147009523Y-92848009D02*
X147009523Y-92543247D01*
X147009523Y-92543247D02*
X147047619Y-92467057D01*
X147047619Y-92467057D02*
X147123809Y-92428961D01*
X147123809Y-92428961D02*
X147276190Y-92428961D01*
X147276190Y-92428961D02*
X147352381Y-92467057D01*
X147352381Y-92467057D02*
X147390476Y-92543247D01*
X147390476Y-92543247D02*
X147390476Y-92619438D01*
X147390476Y-92619438D02*
X147009523Y-92695628D01*
X148076190Y-92924200D02*
X147999999Y-92962295D01*
X147999999Y-92962295D02*
X147847618Y-92962295D01*
X147847618Y-92962295D02*
X147771428Y-92924200D01*
X147771428Y-92924200D02*
X147733333Y-92886104D01*
X147733333Y-92886104D02*
X147695237Y-92809914D01*
X147695237Y-92809914D02*
X147695237Y-92581342D01*
X147695237Y-92581342D02*
X147733333Y-92505152D01*
X147733333Y-92505152D02*
X147771428Y-92467057D01*
X147771428Y-92467057D02*
X147847618Y-92428961D01*
X147847618Y-92428961D02*
X147999999Y-92428961D01*
X147999999Y-92428961D02*
X148076190Y-92467057D01*
X148419047Y-92962295D02*
X148419047Y-92428961D01*
X148419047Y-92162295D02*
X148380951Y-92200390D01*
X148380951Y-92200390D02*
X148419047Y-92238485D01*
X148419047Y-92238485D02*
X148457142Y-92200390D01*
X148457142Y-92200390D02*
X148419047Y-92162295D01*
X148419047Y-92162295D02*
X148419047Y-92238485D01*
X148914284Y-92962295D02*
X148838094Y-92924200D01*
X148838094Y-92924200D02*
X148799999Y-92848009D01*
X148799999Y-92848009D02*
X148799999Y-92162295D01*
X150209523Y-92962295D02*
X149828571Y-92962295D01*
X149828571Y-92962295D02*
X149828571Y-92162295D01*
X150476190Y-92543247D02*
X150742856Y-92543247D01*
X150857142Y-92962295D02*
X150476190Y-92962295D01*
X150476190Y-92962295D02*
X150476190Y-92162295D01*
X150476190Y-92162295D02*
X150857142Y-92162295D01*
X151200000Y-92962295D02*
X151200000Y-92162295D01*
X151200000Y-92162295D02*
X151390476Y-92162295D01*
X151390476Y-92162295D02*
X151504762Y-92200390D01*
X151504762Y-92200390D02*
X151580952Y-92276580D01*
X151580952Y-92276580D02*
X151619047Y-92352771D01*
X151619047Y-92352771D02*
X151657143Y-92505152D01*
X151657143Y-92505152D02*
X151657143Y-92619438D01*
X151657143Y-92619438D02*
X151619047Y-92771819D01*
X151619047Y-92771819D02*
X151580952Y-92848009D01*
X151580952Y-92848009D02*
X151504762Y-92924200D01*
X151504762Y-92924200D02*
X151390476Y-92962295D01*
X151390476Y-92962295D02*
X151200000Y-92962295D01*
X153066667Y-92962295D02*
X152800000Y-92581342D01*
X152609524Y-92962295D02*
X152609524Y-92162295D01*
X152609524Y-92162295D02*
X152914286Y-92162295D01*
X152914286Y-92162295D02*
X152990476Y-92200390D01*
X152990476Y-92200390D02*
X153028571Y-92238485D01*
X153028571Y-92238485D02*
X153066667Y-92314676D01*
X153066667Y-92314676D02*
X153066667Y-92428961D01*
X153066667Y-92428961D02*
X153028571Y-92505152D01*
X153028571Y-92505152D02*
X152990476Y-92543247D01*
X152990476Y-92543247D02*
X152914286Y-92581342D01*
X152914286Y-92581342D02*
X152609524Y-92581342D01*
X153409524Y-92962295D02*
X153409524Y-92428961D01*
X153409524Y-92162295D02*
X153371428Y-92200390D01*
X153371428Y-92200390D02*
X153409524Y-92238485D01*
X153409524Y-92238485D02*
X153447619Y-92200390D01*
X153447619Y-92200390D02*
X153409524Y-92162295D01*
X153409524Y-92162295D02*
X153409524Y-92238485D01*
X153790476Y-92428961D02*
X153790476Y-92962295D01*
X153790476Y-92505152D02*
X153828571Y-92467057D01*
X153828571Y-92467057D02*
X153904761Y-92428961D01*
X153904761Y-92428961D02*
X154019047Y-92428961D01*
X154019047Y-92428961D02*
X154095238Y-92467057D01*
X154095238Y-92467057D02*
X154133333Y-92543247D01*
X154133333Y-92543247D02*
X154133333Y-92962295D01*
X154857143Y-92428961D02*
X154857143Y-93076580D01*
X154857143Y-93076580D02*
X154819048Y-93152771D01*
X154819048Y-93152771D02*
X154780952Y-93190866D01*
X154780952Y-93190866D02*
X154704762Y-93228961D01*
X154704762Y-93228961D02*
X154590476Y-93228961D01*
X154590476Y-93228961D02*
X154514286Y-93190866D01*
X154857143Y-92924200D02*
X154780952Y-92962295D01*
X154780952Y-92962295D02*
X154628571Y-92962295D01*
X154628571Y-92962295D02*
X154552381Y-92924200D01*
X154552381Y-92924200D02*
X154514286Y-92886104D01*
X154514286Y-92886104D02*
X154476190Y-92809914D01*
X154476190Y-92809914D02*
X154476190Y-92581342D01*
X154476190Y-92581342D02*
X154514286Y-92505152D01*
X154514286Y-92505152D02*
X154552381Y-92467057D01*
X154552381Y-92467057D02*
X154628571Y-92428961D01*
X154628571Y-92428961D02*
X154780952Y-92428961D01*
X154780952Y-92428961D02*
X154857143Y-92467057D01*
G36*
X158918566Y-106728385D02*
G01*
X157103546Y-108251368D01*
X156647217Y-107707537D01*
X156806882Y-107707537D01*
X156815681Y-107735446D01*
X156834492Y-107757864D01*
X156860449Y-107771376D01*
X156889601Y-107773926D01*
X156917510Y-107765127D01*
X156929645Y-107756825D01*
X157513298Y-107267082D01*
X157523581Y-107256573D01*
X157537093Y-107230616D01*
X157539643Y-107201464D01*
X157530844Y-107173555D01*
X157512033Y-107151137D01*
X157486076Y-107137625D01*
X157456924Y-107135075D01*
X157429015Y-107143874D01*
X157416880Y-107152176D01*
X156833227Y-107641919D01*
X156822944Y-107652428D01*
X156809432Y-107678385D01*
X156806882Y-107707537D01*
X156647217Y-107707537D01*
X156376395Y-107384784D01*
X156940189Y-106911705D01*
X157755318Y-106911705D01*
X157764117Y-106939614D01*
X157782928Y-106962032D01*
X157808885Y-106975544D01*
X157838037Y-106978094D01*
X157865946Y-106969295D01*
X157878081Y-106960993D01*
X158112454Y-106764330D01*
X158309117Y-106998704D01*
X158319626Y-107008987D01*
X158345583Y-107022499D01*
X158374735Y-107025049D01*
X158402644Y-107016250D01*
X158425062Y-106997439D01*
X158438574Y-106971482D01*
X158441124Y-106942330D01*
X158432325Y-106914421D01*
X158424023Y-106902286D01*
X158227360Y-106667912D01*
X158461734Y-106471250D01*
X158472017Y-106460741D01*
X158485529Y-106434784D01*
X158488079Y-106405632D01*
X158479280Y-106377723D01*
X158460469Y-106355305D01*
X158434512Y-106341793D01*
X158405360Y-106339243D01*
X158377451Y-106348042D01*
X158365316Y-106356344D01*
X158130942Y-106553006D01*
X157934280Y-106318633D01*
X157923771Y-106308350D01*
X157897814Y-106294838D01*
X157868662Y-106292288D01*
X157840753Y-106301087D01*
X157818335Y-106319898D01*
X157804823Y-106345855D01*
X157802273Y-106375007D01*
X157811072Y-106402916D01*
X157819374Y-106415051D01*
X158016036Y-106649424D01*
X157781663Y-106846087D01*
X157771380Y-106856596D01*
X157757868Y-106882553D01*
X157755318Y-106911705D01*
X156940189Y-106911705D01*
X158191416Y-105861801D01*
X158918566Y-106728385D01*
G37*
X147754819Y-109538094D02*
X146754819Y-109538094D01*
X146754819Y-109538094D02*
X146754819Y-109299999D01*
X146754819Y-109299999D02*
X146802438Y-109157142D01*
X146802438Y-109157142D02*
X146897676Y-109061904D01*
X146897676Y-109061904D02*
X146992914Y-109014285D01*
X146992914Y-109014285D02*
X147183390Y-108966666D01*
X147183390Y-108966666D02*
X147326247Y-108966666D01*
X147326247Y-108966666D02*
X147516723Y-109014285D01*
X147516723Y-109014285D02*
X147611961Y-109061904D01*
X147611961Y-109061904D02*
X147707200Y-109157142D01*
X147707200Y-109157142D02*
X147754819Y-109299999D01*
X147754819Y-109299999D02*
X147754819Y-109538094D01*
X146754819Y-108633332D02*
X146754819Y-108014285D01*
X146754819Y-108014285D02*
X147135771Y-108347618D01*
X147135771Y-108347618D02*
X147135771Y-108204761D01*
X147135771Y-108204761D02*
X147183390Y-108109523D01*
X147183390Y-108109523D02*
X147231009Y-108061904D01*
X147231009Y-108061904D02*
X147326247Y-108014285D01*
X147326247Y-108014285D02*
X147564342Y-108014285D01*
X147564342Y-108014285D02*
X147659580Y-108061904D01*
X147659580Y-108061904D02*
X147707200Y-108109523D01*
X147707200Y-108109523D02*
X147754819Y-108204761D01*
X147754819Y-108204761D02*
X147754819Y-108490475D01*
X147754819Y-108490475D02*
X147707200Y-108585713D01*
X147707200Y-108585713D02*
X147659580Y-108633332D01*
X138354819Y-100738094D02*
X137354819Y-100738094D01*
X137354819Y-100738094D02*
X137354819Y-100499999D01*
X137354819Y-100499999D02*
X137402438Y-100357142D01*
X137402438Y-100357142D02*
X137497676Y-100261904D01*
X137497676Y-100261904D02*
X137592914Y-100214285D01*
X137592914Y-100214285D02*
X137783390Y-100166666D01*
X137783390Y-100166666D02*
X137926247Y-100166666D01*
X137926247Y-100166666D02*
X138116723Y-100214285D01*
X138116723Y-100214285D02*
X138211961Y-100261904D01*
X138211961Y-100261904D02*
X138307200Y-100357142D01*
X138307200Y-100357142D02*
X138354819Y-100499999D01*
X138354819Y-100499999D02*
X138354819Y-100738094D01*
X137450057Y-99785713D02*
X137402438Y-99738094D01*
X137402438Y-99738094D02*
X137354819Y-99642856D01*
X137354819Y-99642856D02*
X137354819Y-99404761D01*
X137354819Y-99404761D02*
X137402438Y-99309523D01*
X137402438Y-99309523D02*
X137450057Y-99261904D01*
X137450057Y-99261904D02*
X137545295Y-99214285D01*
X137545295Y-99214285D02*
X137640533Y-99214285D01*
X137640533Y-99214285D02*
X137783390Y-99261904D01*
X137783390Y-99261904D02*
X138354819Y-99833332D01*
X138354819Y-99833332D02*
X138354819Y-99214285D01*
X162554819Y-100738094D02*
X161554819Y-100738094D01*
X161554819Y-100738094D02*
X161554819Y-100499999D01*
X161554819Y-100499999D02*
X161602438Y-100357142D01*
X161602438Y-100357142D02*
X161697676Y-100261904D01*
X161697676Y-100261904D02*
X161792914Y-100214285D01*
X161792914Y-100214285D02*
X161983390Y-100166666D01*
X161983390Y-100166666D02*
X162126247Y-100166666D01*
X162126247Y-100166666D02*
X162316723Y-100214285D01*
X162316723Y-100214285D02*
X162411961Y-100261904D01*
X162411961Y-100261904D02*
X162507200Y-100357142D01*
X162507200Y-100357142D02*
X162554819Y-100499999D01*
X162554819Y-100499999D02*
X162554819Y-100738094D01*
X162554819Y-99214285D02*
X162554819Y-99785713D01*
X162554819Y-99499999D02*
X161554819Y-99499999D01*
X161554819Y-99499999D02*
X161697676Y-99595237D01*
X161697676Y-99595237D02*
X161792914Y-99690475D01*
X161792914Y-99690475D02*
X161840533Y-99785713D01*
X153514370Y-106136108D02*
X153881677Y-106573848D01*
X153881677Y-106573848D02*
X153925956Y-106685883D01*
X153925956Y-106685883D02*
X153916565Y-106793222D01*
X153916565Y-106793222D02*
X153853504Y-106895866D01*
X153853504Y-106895866D02*
X153795139Y-106944841D01*
X153825988Y-105974089D02*
X153830684Y-105920419D01*
X153830684Y-105920419D02*
X153864562Y-105842262D01*
X153864562Y-105842262D02*
X154010475Y-105719826D01*
X154010475Y-105719826D02*
X154093328Y-105700035D01*
X154093328Y-105700035D02*
X154146997Y-105704730D01*
X154146997Y-105704730D02*
X154225154Y-105738608D01*
X154225154Y-105738608D02*
X154274129Y-105796974D01*
X154274129Y-105796974D02*
X154318407Y-105909009D01*
X154318407Y-105909009D02*
X154262061Y-106553046D01*
X154262061Y-106553046D02*
X154641436Y-106234713D01*
X157114370Y-103136108D02*
X157481677Y-103573848D01*
X157481677Y-103573848D02*
X157525956Y-103685883D01*
X157525956Y-103685883D02*
X157516565Y-103793222D01*
X157516565Y-103793222D02*
X157453504Y-103895866D01*
X157453504Y-103895866D02*
X157395139Y-103944841D01*
X158241436Y-103234713D02*
X157891244Y-103528559D01*
X158066340Y-103381636D02*
X157552110Y-102768801D01*
X157552110Y-102768801D02*
X157567206Y-102905323D01*
X157567206Y-102905323D02*
X157557815Y-103012663D01*
X157557815Y-103012663D02*
X157523937Y-103090819D01*
D11*
%TO.C,Logo*%
G36*
X144202081Y-105505025D02*
G01*
X143070710Y-106636397D01*
X143070711Y-106919239D01*
X143353553Y-106919239D01*
X144343503Y-105929289D01*
X144626346Y-105929289D01*
X144626345Y-106212132D01*
X143636396Y-107202082D01*
X143636396Y-107484924D01*
X143919239Y-107484925D01*
X145050611Y-106353554D01*
X145192031Y-106494975D01*
X145192031Y-106777818D01*
X143777818Y-108192031D01*
X143494974Y-108192031D01*
X143070711Y-107767767D01*
X143070710Y-107484924D01*
X142787868Y-107484924D01*
X142363604Y-107060661D01*
X142363604Y-106777817D01*
X143777817Y-105363605D01*
X144060660Y-105363604D01*
X144202081Y-105505025D01*
G37*
G36*
X142929289Y-105646448D02*
G01*
X142646447Y-105646446D01*
X142646446Y-105929290D01*
X142080761Y-106494975D01*
X141797919Y-106494975D01*
X140666548Y-105363604D01*
X141232233Y-105363604D01*
X141797919Y-105929290D01*
X142080761Y-105929289D01*
X142222183Y-105787868D01*
X142222182Y-105505025D01*
X141656497Y-104939340D01*
X141232233Y-105363604D01*
X140666548Y-105363604D01*
X141656497Y-104373654D01*
X142929289Y-105646448D01*
G37*
G36*
X143494975Y-104797919D02*
G01*
X143494974Y-105080761D01*
X142929289Y-105646448D01*
X142505026Y-105222182D01*
X142787868Y-105222183D01*
X142929289Y-105080761D01*
X142929289Y-104797919D01*
X142363604Y-104232234D01*
X141939340Y-104656497D01*
X141656497Y-104373654D01*
X142363604Y-103666548D01*
X143494975Y-104797919D01*
G37*
D10*
X145616296Y-106353554D02*
X145616295Y-106919239D01*
X143919239Y-108616295D01*
X143353552Y-108616295D01*
X140383704Y-105646446D01*
X140383705Y-105080761D01*
X142080761Y-103383705D01*
X142646448Y-103383705D01*
X145616296Y-106353554D01*
D12*
%TO.C,D3*%
X151620000Y-110420000D02*
X151620000Y-107180000D01*
X151620000Y-110420000D02*
X148380000Y-110420000D01*
X151620000Y-107180000D02*
X148380000Y-107180000D01*
%TO.C,D2*%
X138880000Y-101620000D02*
X142120000Y-101620000D01*
X138880000Y-101620000D02*
X138880000Y-98380000D01*
X142120000Y-101620000D02*
X142120000Y-98380000D01*
%TO.C,D1*%
X161120000Y-98380000D02*
X157880000Y-98380000D01*
X161120000Y-98380000D02*
X161120000Y-101620000D01*
X157880000Y-98380000D02*
X157880000Y-101620000D01*
%TD*%
%LPC*%
D13*
%TO.C,D3*%
X150575000Y-108800000D03*
D14*
X148925000Y-108800000D03*
D15*
X148625000Y-108800000D03*
%TD*%
D16*
%TO.C,D2*%
X140500000Y-100575000D03*
D17*
X140500000Y-98925000D03*
D18*
X140500000Y-98625000D03*
%TD*%
D16*
%TO.C,D1*%
X159500000Y-99425000D03*
D17*
X159500000Y-101075000D03*
D18*
X159500000Y-101375000D03*
%TD*%
D19*
%TO.C,REF\u002A\u002A*%
X156700000Y-105900000D03*
%TD*%
D20*
%TO.C,J2*%
X154900000Y-107400000D03*
%TD*%
%TO.C,J1*%
X158500000Y-104400000D03*
%TD*%
%LPD*%
M02*
