<?xml version="1.0" standalone="no"?>
 <!DOCTYPE svg PUBLIC "-//W3C//DTD SVG 1.1//EN" 
 "http://www.w3.org/Graphics/SVG/1.1/DTD/svg11.dtd"> 
<svg
  xmlns:svg="http://www.w3.org/2000/svg"
  xmlns="http://www.w3.org/2000/svg"
  xmlns:xlink="http://www.w3.org/1999/xlink"
  version="1.1"
  width="26.6954mm" height="21.2852mm" viewBox="0.0000 0.0000 26.6954 21.2852">
<title>SVG Image created as LEDRing-F_Mask.svg date 2024/10/25 17:26:29 </title>
  <desc>Image generated by PCBNEW </desc>
<g style="fill:#000000; fill-opacity:1.0000;stroke:#000000; stroke-opacity:1.0000;
stroke-linecap:round; stroke-linejoin:round;"
 transform="translate(0 0) scale(1 1)">
<path style="fill:#000000; fill-opacity:1.0000; stroke:none;fill-rule:evenodd;"
d="M 14.6750,17.0000
14.6750,19.4000
13.0750,19.4000
13.0750,17.0000
Z" /> 
<path style="fill:#000000; fill-opacity:1.0000; stroke:none;fill-rule:evenodd;"
d="M 12.5250,17.0000
12.5250,19.4000
11.9250,19.4000
11.9250,17.0000
Z" /> 
<path style="fill:#000000; fill-opacity:1.0000; stroke:none;fill-rule:evenodd;"
d="M 12.2250,17.9500
12.2250,18.4500
11.6250,18.4500
11.6250,17.9500
Z" /> 
<path style="fill:#000000; fill-opacity:1.0000; stroke:none;fill-rule:evenodd;"
d="M 5.0000,10.7750
2.6000,10.7750
2.6000,9.1750
5.0000,9.1750
Z" /> 
<path style="fill:#000000; fill-opacity:1.0000; stroke:none;fill-rule:evenodd;"
d="M 5.0000,8.6250
2.6000,8.6250
2.6000,8.0250
5.0000,8.0250
Z" /> 
<path style="fill:#000000; fill-opacity:1.0000; stroke:none;fill-rule:evenodd;"
d="M 4.0500,8.3250
3.5500,8.3250
3.5500,7.7250
4.0500,7.7250
Z" /> 
<path style="fill:#000000; fill-opacity:1.0000; stroke:none;fill-rule:evenodd;"
d="M 21.6000,8.0250
24.0000,8.0250
24.0000,9.6250
21.6000,9.6250
Z" /> 
<path style="fill:#000000; fill-opacity:1.0000; stroke:none;fill-rule:evenodd;"
d="M 21.6000,10.1750
24.0000,10.1750
24.0000,10.7750
21.6000,10.7750
Z" /> 
<path style="fill:#000000; fill-opacity:1.0000; stroke:none;fill-rule:evenodd;"
d="M 22.5500,10.4750
23.0500,10.4750
23.0500,11.0750
22.5500,11.0750
Z" /> 
</g>
<g style="fill:#000000; fill-opacity:1.0000; stroke:none;">
<circle cx="20.0000" cy="15.3000" r="0.5000" /> 
<path style="fill:#000000; fill-opacity:1.0000; stroke:none;fill-rule:evenodd;"
d="M 18.4531,15.9349
18.5387,15.8880
18.6356,15.8773
18.7293,15.9046
18.8053,15.9657
19.1267,16.3487
19.1737,16.4342
19.1843,16.5312
19.1570,16.6249
19.0959,16.7009
17.9469,17.6651
17.8613,17.7120
17.7644,17.7227
17.6707,17.6954
17.5947,17.6343
17.2733,17.2513
17.2263,17.1658
17.2157,17.0688
17.2430,16.9751
17.3041,16.8991
Z" /> 
<path style="fill:#000000; fill-opacity:1.0000; stroke:none;fill-rule:evenodd;"
d="M 22.0531,12.9349
22.1387,12.8880
22.2356,12.8773
22.3293,12.9046
22.4053,12.9657
22.7267,13.3487
22.7737,13.4342
22.7843,13.5312
22.7570,13.6249
22.6959,13.7009
21.5469,14.6651
21.4613,14.7120
21.3644,14.7227
21.2707,14.6954
21.1947,14.6343
20.8733,14.2513
20.8263,14.1658
20.8157,14.0688
20.8430,13.9751
20.9041,13.8991
Z" /> 
</g>
<g style="fill:none; 
stroke:#000000; stroke-width:0.0500; stroke-opacity:1; 
stroke-linecap:round; stroke-linejoin:round;">
<path d="M26.3000 7.8000 A14.9184 14.9184 0.0 0 0 0.3000 7.8000" />
<path d="M0.3000 11.0000 A13.4854 13.4854 0.0 0 0 26.3000 11.0000" />
<path d="M26.3000 11.0000
L26.3000 7.8000
" />
<path d="M0.3000 7.8000
L0.3000 11.0000
" />
<circle cx="13.3000" cy="9.4000" r="6.1500" /> 
</g> 
</svg>
