%TF.GenerationSoftware,KiCad,Pcbnew,8.0.5*%
%TF.CreationDate,2024-10-26T17:45:27+02:00*%
%TF.ProjectId,LEDDriver,4c454444-7269-4766-9572-2e6b69636164,rev?*%
%TF.SameCoordinates,Original*%
%TF.FileFunction,Soldermask,Bot*%
%TF.FilePolarity,Negative*%
%FSLAX46Y46*%
G04 Gerber Fmt 4.6, Leading zero omitted, Abs format (unit mm)*
G04 Created by KiCad (PCBNEW 8.0.5) date 2024-10-26 17:45:27*
%MOMM*%
%LPD*%
G01*
G04 APERTURE LIST*
G04 Aperture macros list*
%AMRoundRect*
0 Rectangle with rounded corners*
0 $1 Rounding radius*
0 $2 $3 $4 $5 $6 $7 $8 $9 X,Y pos of 4 corners*
0 Add a 4 corners polygon primitive as box body*
4,1,4,$2,$3,$4,$5,$6,$7,$8,$9,$2,$3,0*
0 Add four circle primitives for the rounded corners*
1,1,$1+$1,$2,$3*
1,1,$1+$1,$4,$5*
1,1,$1+$1,$6,$7*
1,1,$1+$1,$8,$9*
0 Add four rect primitives between the rounded corners*
20,1,$1+$1,$2,$3,$4,$5,0*
20,1,$1+$1,$4,$5,$6,$7,0*
20,1,$1+$1,$6,$7,$8,$9,0*
20,1,$1+$1,$8,$9,$2,$3,0*%
G04 Aperture macros list end*
%ADD10C,0.150000*%
%ADD11C,0.000000*%
%ADD12C,1.000000*%
%ADD13RoundRect,0.250001X0.799999X-0.799999X0.799999X0.799999X-0.799999X0.799999X-0.799999X-0.799999X0*%
%ADD14RoundRect,0.250001X-0.799999X-0.799999X0.799999X-0.799999X0.799999X0.799999X-0.799999X0.799999X0*%
G04 APERTURE END LIST*
D10*
%TO.C,REF\u002A\u002A*%
X150900000Y-100400000D02*
X150900000Y-102800000D01*
X150500000Y-103200000D01*
X146300000Y-103200000D01*
X145900000Y-102800000D01*
X145900000Y-100400000D01*
X146300000Y-100000000D01*
X150500000Y-100000000D01*
X150900000Y-100400000D01*
D11*
G36*
X150500000Y-101400000D02*
G01*
X150100000Y-101400000D01*
X150100000Y-100800000D01*
X149300000Y-100800000D01*
X149100000Y-101000000D01*
X149100000Y-101200000D01*
X149300000Y-101400000D01*
X148700000Y-101400000D01*
X148700000Y-100600000D01*
X148900000Y-100400000D01*
X150500000Y-100400000D01*
X150500000Y-101400000D01*
G37*
G36*
X150500000Y-102800000D02*
G01*
X148900000Y-102800000D01*
X148700000Y-102600000D01*
X148700000Y-102000000D01*
X149100000Y-102000000D01*
X149100000Y-102200000D01*
X149300000Y-102400000D01*
X150100000Y-102400000D01*
X150100000Y-101800000D01*
X149300000Y-101800000D01*
X149100000Y-102000000D01*
X148700000Y-102000000D01*
X148700000Y-101800000D01*
X148900000Y-101600000D01*
X148700000Y-101400000D01*
X150500000Y-101400000D01*
X150500000Y-102800000D01*
G37*
G36*
X146700000Y-102000000D02*
G01*
X146900000Y-102200000D01*
X147100000Y-102000000D01*
X147100000Y-100600000D01*
X147300000Y-100400000D01*
X147500000Y-100600000D01*
X147500000Y-102000000D01*
X147700000Y-102200000D01*
X147900000Y-102000000D01*
X147900000Y-100400000D01*
X148100000Y-100400000D01*
X148300000Y-100600000D01*
X148300000Y-102600000D01*
X148100000Y-102800000D01*
X147500000Y-102800000D01*
X147300000Y-102600000D01*
X147100000Y-102800000D01*
X146500000Y-102800000D01*
X146300000Y-102600000D01*
X146300000Y-100600000D01*
X146500000Y-100400000D01*
X146700000Y-100400000D01*
X146700000Y-102000000D01*
G37*
%TD*%
D12*
%TO.C,TP1*%
X144100000Y-103000000D03*
%TD*%
D13*
%TO.C,J5*%
X139200000Y-102000000D03*
%TD*%
%TO.C,J4*%
X139200000Y-98000000D03*
%TD*%
D14*
%TO.C,J3*%
X153500000Y-102300000D03*
%TD*%
D13*
%TO.C,J2*%
X160800000Y-98000000D03*
%TD*%
%TO.C,J1*%
X160800000Y-102000000D03*
%TD*%
M02*
