M48
; DRILL file {KiCad 8.0.5} date 2024-10-26T17:45:27+0200
; FORMAT={-:-/ absolute / inch / decimal}
; #@! TF.CreationDate,2024-10-26T17:45:27+02:00
; #@! TF.GenerationSoftware,Kicad,Pcbnew,8.0.5
; #@! TF.FileFunction,Plated,1,2,PTH
FMAT,2
INCH
; #@! TA.AperFunction,Plated,PTH,ViaDrill
T1C0.0118
; #@! TA.AperFunction,Plated,PTH,ComponentDrill
T2C0.0433
%
G90
G05
T1
X5.6427Y-4.0197
X5.6467Y-3.815
X5.6496Y-3.8937
X5.6496Y-3.9409
X5.6732Y-3.8661
X5.6732Y-3.9173
X5.6732Y-3.9685
X5.685Y-3.815
X5.6969Y-3.8937
X5.6969Y-3.9409
X5.7037Y-4.0197
X5.7228Y-3.9283
X5.8346Y-3.8789
X5.8976Y-3.8701
X5.937Y-3.8701
T2
X5.4803Y-3.8583
X5.4803Y-4.0157
X6.0433Y-4.0276
X6.3307Y-3.8583
X6.3307Y-4.0157
M30
