%TF.GenerationSoftware,KiCad,Pcbnew,8.0.5*%
%TF.CreationDate,2024-10-26T17:45:27+02:00*%
%TF.ProjectId,LEDDriver,4c454444-7269-4766-9572-2e6b69636164,rev?*%
%TF.SameCoordinates,Original*%
%TF.FileFunction,Legend,Top*%
%TF.FilePolarity,Positive*%
%FSLAX46Y46*%
G04 Gerber Fmt 4.6, Leading zero omitted, Abs format (unit mm)*
G04 Created by KiCad (PCBNEW 8.0.5) date 2024-10-26 17:45:27*
%MOMM*%
%LPD*%
G01*
G04 APERTURE LIST*
G04 Aperture macros list*
%AMRoundRect*
0 Rectangle with rounded corners*
0 $1 Rounding radius*
0 $2 $3 $4 $5 $6 $7 $8 $9 X,Y pos of 4 corners*
0 Add a 4 corners polygon primitive as box body*
4,1,4,$2,$3,$4,$5,$6,$7,$8,$9,$2,$3,0*
0 Add four circle primitives for the rounded corners*
1,1,$1+$1,$2,$3*
1,1,$1+$1,$4,$5*
1,1,$1+$1,$6,$7*
1,1,$1+$1,$8,$9*
0 Add four rect primitives between the rounded corners*
20,1,$1+$1,$2,$3,$4,$5,0*
20,1,$1+$1,$4,$5,$6,$7,0*
20,1,$1+$1,$6,$7,$8,$9,0*
20,1,$1+$1,$8,$9,$2,$3,0*%
G04 Aperture macros list end*
%ADD10C,0.150000*%
%ADD11C,0.120000*%
%ADD12RoundRect,0.250000X-0.250000X-0.475000X0.250000X-0.475000X0.250000X0.475000X-0.250000X0.475000X0*%
%ADD13RoundRect,0.100000X-0.612500X-0.100000X0.612500X-0.100000X0.612500X0.100000X-0.612500X0.100000X0*%
%ADD14R,1.730000X1.850000*%
%ADD15RoundRect,0.200000X-0.200000X-0.275000X0.200000X-0.275000X0.200000X0.275000X-0.200000X0.275000X0*%
%ADD16RoundRect,0.200000X0.200000X0.275000X-0.200000X0.275000X-0.200000X-0.275000X0.200000X-0.275000X0*%
%ADD17RoundRect,0.200000X-0.275000X0.200000X-0.275000X-0.200000X0.275000X-0.200000X0.275000X0.200000X0*%
%ADD18R,1.700000X3.700000*%
%ADD19RoundRect,0.250001X0.799999X-0.799999X0.799999X0.799999X-0.799999X0.799999X-0.799999X-0.799999X0*%
%ADD20RoundRect,0.250001X-0.799999X-0.799999X0.799999X-0.799999X0.799999X0.799999X-0.799999X0.799999X0*%
%ADD21RoundRect,0.250000X0.250000X-0.250000X0.250000X0.250000X-0.250000X0.250000X-0.250000X-0.250000X0*%
%ADD22RoundRect,0.225000X0.250000X-0.225000X0.250000X0.225000X-0.250000X0.225000X-0.250000X-0.225000X0*%
%ADD23RoundRect,0.250000X0.650000X-0.325000X0.650000X0.325000X-0.650000X0.325000X-0.650000X-0.325000X0*%
G04 APERTURE END LIST*
D10*
X157166667Y-103586104D02*
X157128571Y-103624200D01*
X157128571Y-103624200D02*
X157014286Y-103662295D01*
X157014286Y-103662295D02*
X156938095Y-103662295D01*
X156938095Y-103662295D02*
X156823809Y-103624200D01*
X156823809Y-103624200D02*
X156747619Y-103548009D01*
X156747619Y-103548009D02*
X156709524Y-103471819D01*
X156709524Y-103471819D02*
X156671428Y-103319438D01*
X156671428Y-103319438D02*
X156671428Y-103205152D01*
X156671428Y-103205152D02*
X156709524Y-103052771D01*
X156709524Y-103052771D02*
X156747619Y-102976580D01*
X156747619Y-102976580D02*
X156823809Y-102900390D01*
X156823809Y-102900390D02*
X156938095Y-102862295D01*
X156938095Y-102862295D02*
X157014286Y-102862295D01*
X157014286Y-102862295D02*
X157128571Y-102900390D01*
X157128571Y-102900390D02*
X157166667Y-102938485D01*
X157928571Y-103662295D02*
X157471428Y-103662295D01*
X157700000Y-103662295D02*
X157700000Y-102862295D01*
X157700000Y-102862295D02*
X157623809Y-102976580D01*
X157623809Y-102976580D02*
X157547619Y-103052771D01*
X157547619Y-103052771D02*
X157471428Y-103090866D01*
X145890476Y-96762295D02*
X145890476Y-97409914D01*
X145890476Y-97409914D02*
X145928571Y-97486104D01*
X145928571Y-97486104D02*
X145966666Y-97524200D01*
X145966666Y-97524200D02*
X146042857Y-97562295D01*
X146042857Y-97562295D02*
X146195238Y-97562295D01*
X146195238Y-97562295D02*
X146271428Y-97524200D01*
X146271428Y-97524200D02*
X146309523Y-97486104D01*
X146309523Y-97486104D02*
X146347619Y-97409914D01*
X146347619Y-97409914D02*
X146347619Y-96762295D01*
X147147618Y-97562295D02*
X146690475Y-97562295D01*
X146919047Y-97562295D02*
X146919047Y-96762295D01*
X146919047Y-96762295D02*
X146842856Y-96876580D01*
X146842856Y-96876580D02*
X146766666Y-96952771D01*
X146766666Y-96952771D02*
X146690475Y-96990866D01*
X143166667Y-103762295D02*
X142900000Y-103381342D01*
X142709524Y-103762295D02*
X142709524Y-102962295D01*
X142709524Y-102962295D02*
X143014286Y-102962295D01*
X143014286Y-102962295D02*
X143090476Y-103000390D01*
X143090476Y-103000390D02*
X143128571Y-103038485D01*
X143128571Y-103038485D02*
X143166667Y-103114676D01*
X143166667Y-103114676D02*
X143166667Y-103228961D01*
X143166667Y-103228961D02*
X143128571Y-103305152D01*
X143128571Y-103305152D02*
X143090476Y-103343247D01*
X143090476Y-103343247D02*
X143014286Y-103381342D01*
X143014286Y-103381342D02*
X142709524Y-103381342D01*
X143852381Y-103228961D02*
X143852381Y-103762295D01*
X143661905Y-102924200D02*
X143471428Y-103495628D01*
X143471428Y-103495628D02*
X143966667Y-103495628D01*
X145566667Y-103762295D02*
X145300000Y-103381342D01*
X145109524Y-103762295D02*
X145109524Y-102962295D01*
X145109524Y-102962295D02*
X145414286Y-102962295D01*
X145414286Y-102962295D02*
X145490476Y-103000390D01*
X145490476Y-103000390D02*
X145528571Y-103038485D01*
X145528571Y-103038485D02*
X145566667Y-103114676D01*
X145566667Y-103114676D02*
X145566667Y-103228961D01*
X145566667Y-103228961D02*
X145528571Y-103305152D01*
X145528571Y-103305152D02*
X145490476Y-103343247D01*
X145490476Y-103343247D02*
X145414286Y-103381342D01*
X145414286Y-103381342D02*
X145109524Y-103381342D01*
X145833333Y-102962295D02*
X146328571Y-102962295D01*
X146328571Y-102962295D02*
X146061905Y-103267057D01*
X146061905Y-103267057D02*
X146176190Y-103267057D01*
X146176190Y-103267057D02*
X146252381Y-103305152D01*
X146252381Y-103305152D02*
X146290476Y-103343247D01*
X146290476Y-103343247D02*
X146328571Y-103419438D01*
X146328571Y-103419438D02*
X146328571Y-103609914D01*
X146328571Y-103609914D02*
X146290476Y-103686104D01*
X146290476Y-103686104D02*
X146252381Y-103724200D01*
X146252381Y-103724200D02*
X146176190Y-103762295D01*
X146176190Y-103762295D02*
X145947619Y-103762295D01*
X145947619Y-103762295D02*
X145871428Y-103724200D01*
X145871428Y-103724200D02*
X145833333Y-103686104D01*
X145462295Y-97033332D02*
X145081342Y-97299999D01*
X145462295Y-97490475D02*
X144662295Y-97490475D01*
X144662295Y-97490475D02*
X144662295Y-97185713D01*
X144662295Y-97185713D02*
X144700390Y-97109523D01*
X144700390Y-97109523D02*
X144738485Y-97071428D01*
X144738485Y-97071428D02*
X144814676Y-97033332D01*
X144814676Y-97033332D02*
X144928961Y-97033332D01*
X144928961Y-97033332D02*
X145005152Y-97071428D01*
X145005152Y-97071428D02*
X145043247Y-97109523D01*
X145043247Y-97109523D02*
X145081342Y-97185713D01*
X145081342Y-97185713D02*
X145081342Y-97490475D01*
X144738485Y-96728571D02*
X144700390Y-96690475D01*
X144700390Y-96690475D02*
X144662295Y-96614285D01*
X144662295Y-96614285D02*
X144662295Y-96423809D01*
X144662295Y-96423809D02*
X144700390Y-96347618D01*
X144700390Y-96347618D02*
X144738485Y-96309523D01*
X144738485Y-96309523D02*
X144814676Y-96271428D01*
X144814676Y-96271428D02*
X144890866Y-96271428D01*
X144890866Y-96271428D02*
X145005152Y-96309523D01*
X145005152Y-96309523D02*
X145462295Y-96766666D01*
X145462295Y-96766666D02*
X145462295Y-96271428D01*
X149962295Y-102933332D02*
X149581342Y-103199999D01*
X149962295Y-103390475D02*
X149162295Y-103390475D01*
X149162295Y-103390475D02*
X149162295Y-103085713D01*
X149162295Y-103085713D02*
X149200390Y-103009523D01*
X149200390Y-103009523D02*
X149238485Y-102971428D01*
X149238485Y-102971428D02*
X149314676Y-102933332D01*
X149314676Y-102933332D02*
X149428961Y-102933332D01*
X149428961Y-102933332D02*
X149505152Y-102971428D01*
X149505152Y-102971428D02*
X149543247Y-103009523D01*
X149543247Y-103009523D02*
X149581342Y-103085713D01*
X149581342Y-103085713D02*
X149581342Y-103390475D01*
X149962295Y-102171428D02*
X149962295Y-102628571D01*
X149962295Y-102399999D02*
X149162295Y-102399999D01*
X149162295Y-102399999D02*
X149276580Y-102476190D01*
X149276580Y-102476190D02*
X149352771Y-102552380D01*
X149352771Y-102552380D02*
X149390866Y-102628571D01*
X155662295Y-101633333D02*
X155662295Y-102014285D01*
X155662295Y-102014285D02*
X154862295Y-102014285D01*
X155662295Y-100947619D02*
X155662295Y-101404762D01*
X155662295Y-101176190D02*
X154862295Y-101176190D01*
X154862295Y-101176190D02*
X154976580Y-101252381D01*
X154976580Y-101252381D02*
X155052771Y-101328571D01*
X155052771Y-101328571D02*
X155090866Y-101404762D01*
X140733333Y-102962295D02*
X140733333Y-103533723D01*
X140733333Y-103533723D02*
X140695238Y-103648009D01*
X140695238Y-103648009D02*
X140619047Y-103724200D01*
X140619047Y-103724200D02*
X140504762Y-103762295D01*
X140504762Y-103762295D02*
X140428571Y-103762295D01*
X141495238Y-102962295D02*
X141114286Y-102962295D01*
X141114286Y-102962295D02*
X141076190Y-103343247D01*
X141076190Y-103343247D02*
X141114286Y-103305152D01*
X141114286Y-103305152D02*
X141190476Y-103267057D01*
X141190476Y-103267057D02*
X141380952Y-103267057D01*
X141380952Y-103267057D02*
X141457143Y-103305152D01*
X141457143Y-103305152D02*
X141495238Y-103343247D01*
X141495238Y-103343247D02*
X141533333Y-103419438D01*
X141533333Y-103419438D02*
X141533333Y-103609914D01*
X141533333Y-103609914D02*
X141495238Y-103686104D01*
X141495238Y-103686104D02*
X141457143Y-103724200D01*
X141457143Y-103724200D02*
X141380952Y-103762295D01*
X141380952Y-103762295D02*
X141190476Y-103762295D01*
X141190476Y-103762295D02*
X141114286Y-103724200D01*
X141114286Y-103724200D02*
X141076190Y-103686104D01*
X138933333Y-99362295D02*
X138933333Y-99933723D01*
X138933333Y-99933723D02*
X138895238Y-100048009D01*
X138895238Y-100048009D02*
X138819047Y-100124200D01*
X138819047Y-100124200D02*
X138704762Y-100162295D01*
X138704762Y-100162295D02*
X138628571Y-100162295D01*
X139657143Y-99628961D02*
X139657143Y-100162295D01*
X139466667Y-99324200D02*
X139276190Y-99895628D01*
X139276190Y-99895628D02*
X139771429Y-99895628D01*
X155333333Y-102862295D02*
X155333333Y-103433723D01*
X155333333Y-103433723D02*
X155295238Y-103548009D01*
X155295238Y-103548009D02*
X155219047Y-103624200D01*
X155219047Y-103624200D02*
X155104762Y-103662295D01*
X155104762Y-103662295D02*
X155028571Y-103662295D01*
X155638095Y-102862295D02*
X156133333Y-102862295D01*
X156133333Y-102862295D02*
X155866667Y-103167057D01*
X155866667Y-103167057D02*
X155980952Y-103167057D01*
X155980952Y-103167057D02*
X156057143Y-103205152D01*
X156057143Y-103205152D02*
X156095238Y-103243247D01*
X156095238Y-103243247D02*
X156133333Y-103319438D01*
X156133333Y-103319438D02*
X156133333Y-103509914D01*
X156133333Y-103509914D02*
X156095238Y-103586104D01*
X156095238Y-103586104D02*
X156057143Y-103624200D01*
X156057143Y-103624200D02*
X155980952Y-103662295D01*
X155980952Y-103662295D02*
X155752381Y-103662295D01*
X155752381Y-103662295D02*
X155676190Y-103624200D01*
X155676190Y-103624200D02*
X155638095Y-103586104D01*
X160433333Y-99362295D02*
X160433333Y-99933723D01*
X160433333Y-99933723D02*
X160395238Y-100048009D01*
X160395238Y-100048009D02*
X160319047Y-100124200D01*
X160319047Y-100124200D02*
X160204762Y-100162295D01*
X160204762Y-100162295D02*
X160128571Y-100162295D01*
X160776190Y-99438485D02*
X160814286Y-99400390D01*
X160814286Y-99400390D02*
X160890476Y-99362295D01*
X160890476Y-99362295D02*
X161080952Y-99362295D01*
X161080952Y-99362295D02*
X161157143Y-99400390D01*
X161157143Y-99400390D02*
X161195238Y-99438485D01*
X161195238Y-99438485D02*
X161233333Y-99514676D01*
X161233333Y-99514676D02*
X161233333Y-99590866D01*
X161233333Y-99590866D02*
X161195238Y-99705152D01*
X161195238Y-99705152D02*
X160738095Y-100162295D01*
X160738095Y-100162295D02*
X161233333Y-100162295D01*
X158733333Y-102862295D02*
X158733333Y-103433723D01*
X158733333Y-103433723D02*
X158695238Y-103548009D01*
X158695238Y-103548009D02*
X158619047Y-103624200D01*
X158619047Y-103624200D02*
X158504762Y-103662295D01*
X158504762Y-103662295D02*
X158428571Y-103662295D01*
X159533333Y-103662295D02*
X159076190Y-103662295D01*
X159304762Y-103662295D02*
X159304762Y-102862295D01*
X159304762Y-102862295D02*
X159228571Y-102976580D01*
X159228571Y-102976580D02*
X159152381Y-103052771D01*
X159152381Y-103052771D02*
X159076190Y-103090866D01*
X150209524Y-97162295D02*
X150209524Y-96362295D01*
X150209524Y-96362295D02*
X150400000Y-96362295D01*
X150400000Y-96362295D02*
X150514286Y-96400390D01*
X150514286Y-96400390D02*
X150590476Y-96476580D01*
X150590476Y-96476580D02*
X150628571Y-96552771D01*
X150628571Y-96552771D02*
X150666667Y-96705152D01*
X150666667Y-96705152D02*
X150666667Y-96819438D01*
X150666667Y-96819438D02*
X150628571Y-96971819D01*
X150628571Y-96971819D02*
X150590476Y-97048009D01*
X150590476Y-97048009D02*
X150514286Y-97124200D01*
X150514286Y-97124200D02*
X150400000Y-97162295D01*
X150400000Y-97162295D02*
X150209524Y-97162295D01*
X151428571Y-97162295D02*
X150971428Y-97162295D01*
X151200000Y-97162295D02*
X151200000Y-96362295D01*
X151200000Y-96362295D02*
X151123809Y-96476580D01*
X151123809Y-96476580D02*
X151047619Y-96552771D01*
X151047619Y-96552771D02*
X150971428Y-96590866D01*
X148066667Y-97486104D02*
X148028571Y-97524200D01*
X148028571Y-97524200D02*
X147914286Y-97562295D01*
X147914286Y-97562295D02*
X147838095Y-97562295D01*
X147838095Y-97562295D02*
X147723809Y-97524200D01*
X147723809Y-97524200D02*
X147647619Y-97448009D01*
X147647619Y-97448009D02*
X147609524Y-97371819D01*
X147609524Y-97371819D02*
X147571428Y-97219438D01*
X147571428Y-97219438D02*
X147571428Y-97105152D01*
X147571428Y-97105152D02*
X147609524Y-96952771D01*
X147609524Y-96952771D02*
X147647619Y-96876580D01*
X147647619Y-96876580D02*
X147723809Y-96800390D01*
X147723809Y-96800390D02*
X147838095Y-96762295D01*
X147838095Y-96762295D02*
X147914286Y-96762295D01*
X147914286Y-96762295D02*
X148028571Y-96800390D01*
X148028571Y-96800390D02*
X148066667Y-96838485D01*
X148333333Y-96762295D02*
X148828571Y-96762295D01*
X148828571Y-96762295D02*
X148561905Y-97067057D01*
X148561905Y-97067057D02*
X148676190Y-97067057D01*
X148676190Y-97067057D02*
X148752381Y-97105152D01*
X148752381Y-97105152D02*
X148790476Y-97143247D01*
X148790476Y-97143247D02*
X148828571Y-97219438D01*
X148828571Y-97219438D02*
X148828571Y-97409914D01*
X148828571Y-97409914D02*
X148790476Y-97486104D01*
X148790476Y-97486104D02*
X148752381Y-97524200D01*
X148752381Y-97524200D02*
X148676190Y-97562295D01*
X148676190Y-97562295D02*
X148447619Y-97562295D01*
X148447619Y-97562295D02*
X148371428Y-97524200D01*
X148371428Y-97524200D02*
X148333333Y-97486104D01*
X150866667Y-102886104D02*
X150828571Y-102924200D01*
X150828571Y-102924200D02*
X150714286Y-102962295D01*
X150714286Y-102962295D02*
X150638095Y-102962295D01*
X150638095Y-102962295D02*
X150523809Y-102924200D01*
X150523809Y-102924200D02*
X150447619Y-102848009D01*
X150447619Y-102848009D02*
X150409524Y-102771819D01*
X150409524Y-102771819D02*
X150371428Y-102619438D01*
X150371428Y-102619438D02*
X150371428Y-102505152D01*
X150371428Y-102505152D02*
X150409524Y-102352771D01*
X150409524Y-102352771D02*
X150447619Y-102276580D01*
X150447619Y-102276580D02*
X150523809Y-102200390D01*
X150523809Y-102200390D02*
X150638095Y-102162295D01*
X150638095Y-102162295D02*
X150714286Y-102162295D01*
X150714286Y-102162295D02*
X150828571Y-102200390D01*
X150828571Y-102200390D02*
X150866667Y-102238485D01*
X151171428Y-102238485D02*
X151209524Y-102200390D01*
X151209524Y-102200390D02*
X151285714Y-102162295D01*
X151285714Y-102162295D02*
X151476190Y-102162295D01*
X151476190Y-102162295D02*
X151552381Y-102200390D01*
X151552381Y-102200390D02*
X151590476Y-102238485D01*
X151590476Y-102238485D02*
X151628571Y-102314676D01*
X151628571Y-102314676D02*
X151628571Y-102390866D01*
X151628571Y-102390866D02*
X151590476Y-102505152D01*
X151590476Y-102505152D02*
X151133333Y-102962295D01*
X151133333Y-102962295D02*
X151628571Y-102962295D01*
D11*
%TO.C,C1*%
X157138748Y-101065000D02*
X157661252Y-101065000D01*
X157138748Y-102535000D02*
X157661252Y-102535000D01*
%TO.C,U1*%
X144100000Y-97890000D02*
X142600000Y-97890000D01*
X144100000Y-97890000D02*
X145600000Y-97890000D01*
X144100000Y-101110000D02*
X142600000Y-101110000D01*
X144100000Y-101110000D02*
X145600000Y-101110000D01*
X141912500Y-98065000D02*
X141672500Y-97735000D01*
X142152500Y-97735000D01*
X141912500Y-98065000D01*
G36*
X141912500Y-98065000D02*
G01*
X141672500Y-97735000D01*
X142152500Y-97735000D01*
X141912500Y-98065000D01*
G37*
%TO.C,R4*%
X142262742Y-101577500D02*
X142737258Y-101577500D01*
X142262742Y-102622500D02*
X142737258Y-102622500D01*
%TO.C,R3*%
X145937258Y-102622500D02*
X145462742Y-102622500D01*
X145937258Y-101577500D02*
X145462742Y-101577500D01*
%TO.C,R2*%
X142362742Y-96377500D02*
X142837258Y-96377500D01*
X142362742Y-97422500D02*
X142837258Y-97422500D01*
%TO.C,R1*%
X148722500Y-102162742D02*
X148722500Y-102637258D01*
X147677500Y-102162742D02*
X147677500Y-102637258D01*
%TO.C,L1*%
X154400000Y-100600000D02*
X158400000Y-100600000D01*
X154400000Y-96400000D02*
X158400000Y-96400000D01*
%TO.C,D1*%
X153450000Y-100510000D02*
X153450000Y-97250000D01*
X151750000Y-100510000D02*
X151750000Y-97250000D01*
X151750000Y-100510000D02*
X153450000Y-100510000D01*
%TO.C,C3*%
X147690000Y-99440580D02*
X147690000Y-99159420D01*
X148710000Y-99440580D02*
X148710000Y-99159420D01*
%TO.C,C2*%
X149390000Y-100511252D02*
X149390000Y-99088748D01*
X151210000Y-100511252D02*
X151210000Y-99088748D01*
%TD*%
%LPC*%
D12*
%TO.C,C1*%
X156450000Y-101800000D03*
X158350000Y-101800000D03*
%TD*%
D13*
%TO.C,U1*%
X141937500Y-98525000D03*
X141937500Y-99175000D03*
X141937500Y-99825000D03*
X141937500Y-100475000D03*
X146262500Y-100475000D03*
X146262500Y-99825000D03*
X146262500Y-99175000D03*
X146262500Y-98525000D03*
D14*
X144100000Y-99500000D03*
%TD*%
D15*
%TO.C,R4*%
X141675000Y-102100000D03*
X143325000Y-102100000D03*
%TD*%
D16*
%TO.C,R3*%
X146525000Y-102100000D03*
X144875000Y-102100000D03*
%TD*%
D15*
%TO.C,R2*%
X141775000Y-96900000D03*
X143425000Y-96900000D03*
%TD*%
D17*
%TO.C,R1*%
X148200000Y-101575000D03*
X148200000Y-103225000D03*
%TD*%
D18*
%TO.C,L1*%
X158050000Y-98500000D03*
X154750000Y-98500000D03*
%TD*%
D19*
%TO.C,J5*%
X139200000Y-102000000D03*
%TD*%
%TO.C,J4*%
X139200000Y-98000000D03*
%TD*%
D20*
%TO.C,J3*%
X153500000Y-102300000D03*
%TD*%
D19*
%TO.C,J2*%
X160800000Y-98000000D03*
%TD*%
%TO.C,J1*%
X160800000Y-102000000D03*
%TD*%
D21*
%TO.C,D1*%
X152600000Y-97250000D03*
X152600000Y-99750000D03*
%TD*%
D22*
%TO.C,C3*%
X148200000Y-100075000D03*
X148200000Y-98525000D03*
%TD*%
D23*
%TO.C,C2*%
X150300000Y-101275000D03*
X150300000Y-98325000D03*
%TD*%
%LPD*%
M02*
