%TF.GenerationSoftware,KiCad,Pcbnew,8.0.5*%
%TF.CreationDate,2024-10-26T17:45:27+02:00*%
%TF.ProjectId,LEDDriver,4c454444-7269-4766-9572-2e6b69636164,rev?*%
%TF.SameCoordinates,Original*%
%TF.FileFunction,Copper,L1,Top*%
%TF.FilePolarity,Positive*%
%FSLAX46Y46*%
G04 Gerber Fmt 4.6, Leading zero omitted, Abs format (unit mm)*
G04 Created by KiCad (PCBNEW 8.0.5) date 2024-10-26 17:45:27*
%MOMM*%
%LPD*%
G01*
G04 APERTURE LIST*
G04 Aperture macros list*
%AMRoundRect*
0 Rectangle with rounded corners*
0 $1 Rounding radius*
0 $2 $3 $4 $5 $6 $7 $8 $9 X,Y pos of 4 corners*
0 Add a 4 corners polygon primitive as box body*
4,1,4,$2,$3,$4,$5,$6,$7,$8,$9,$2,$3,0*
0 Add four circle primitives for the rounded corners*
1,1,$1+$1,$2,$3*
1,1,$1+$1,$4,$5*
1,1,$1+$1,$6,$7*
1,1,$1+$1,$8,$9*
0 Add four rect primitives between the rounded corners*
20,1,$1+$1,$2,$3,$4,$5,0*
20,1,$1+$1,$4,$5,$6,$7,0*
20,1,$1+$1,$6,$7,$8,$9,0*
20,1,$1+$1,$8,$9,$2,$3,0*%
G04 Aperture macros list end*
%TA.AperFunction,SMDPad,CuDef*%
%ADD10RoundRect,0.250000X-0.250000X-0.475000X0.250000X-0.475000X0.250000X0.475000X-0.250000X0.475000X0*%
%TD*%
%TA.AperFunction,SMDPad,CuDef*%
%ADD11RoundRect,0.100000X-0.612500X-0.100000X0.612500X-0.100000X0.612500X0.100000X-0.612500X0.100000X0*%
%TD*%
%TA.AperFunction,HeatsinkPad*%
%ADD12R,1.730000X1.850000*%
%TD*%
%TA.AperFunction,SMDPad,CuDef*%
%ADD13RoundRect,0.200000X-0.200000X-0.275000X0.200000X-0.275000X0.200000X0.275000X-0.200000X0.275000X0*%
%TD*%
%TA.AperFunction,SMDPad,CuDef*%
%ADD14RoundRect,0.200000X0.200000X0.275000X-0.200000X0.275000X-0.200000X-0.275000X0.200000X-0.275000X0*%
%TD*%
%TA.AperFunction,SMDPad,CuDef*%
%ADD15RoundRect,0.200000X-0.275000X0.200000X-0.275000X-0.200000X0.275000X-0.200000X0.275000X0.200000X0*%
%TD*%
%TA.AperFunction,SMDPad,CuDef*%
%ADD16R,1.700000X3.700000*%
%TD*%
%TA.AperFunction,ComponentPad*%
%ADD17RoundRect,0.250001X0.799999X-0.799999X0.799999X0.799999X-0.799999X0.799999X-0.799999X-0.799999X0*%
%TD*%
%TA.AperFunction,ComponentPad*%
%ADD18RoundRect,0.250001X-0.799999X-0.799999X0.799999X-0.799999X0.799999X0.799999X-0.799999X0.799999X0*%
%TD*%
%TA.AperFunction,SMDPad,CuDef*%
%ADD19RoundRect,0.250000X0.250000X-0.250000X0.250000X0.250000X-0.250000X0.250000X-0.250000X-0.250000X0*%
%TD*%
%TA.AperFunction,SMDPad,CuDef*%
%ADD20RoundRect,0.225000X0.250000X-0.225000X0.250000X0.225000X-0.250000X0.225000X-0.250000X-0.225000X0*%
%TD*%
%TA.AperFunction,SMDPad,CuDef*%
%ADD21RoundRect,0.250000X0.650000X-0.325000X0.650000X0.325000X-0.650000X0.325000X-0.650000X-0.325000X0*%
%TD*%
%TA.AperFunction,ViaPad*%
%ADD22C,0.450000*%
%TD*%
%TA.AperFunction,Conductor*%
%ADD23C,1.000000*%
%TD*%
%TA.AperFunction,Conductor*%
%ADD24C,0.150000*%
%TD*%
%TA.AperFunction,Conductor*%
%ADD25C,0.400000*%
%TD*%
%TA.AperFunction,Conductor*%
%ADD26C,0.800000*%
%TD*%
%TA.AperFunction,Conductor*%
%ADD27C,0.200000*%
%TD*%
%TA.AperFunction,Conductor*%
%ADD28C,0.250000*%
%TD*%
G04 APERTURE END LIST*
D10*
%TO.P,C1,1*%
%TO.N,Net-(D1-K)*%
X156450000Y-101800000D03*
%TO.P,C1,2*%
%TO.N,Net-(J2-Pin_1)*%
X158350000Y-101800000D03*
%TD*%
D11*
%TO.P,U1,1,ISNS*%
%TO.N,Net-(U1-ISNS)*%
X141937500Y-98525000D03*
%TO.P,U1,2,DIM*%
%TO.N,Net-(J4-Pin_1)*%
X141937500Y-99175000D03*
%TO.P,U1,3,EN*%
%TO.N,Net-(U1-EN)*%
X141937500Y-99825000D03*
%TO.P,U1,4,FS*%
%TO.N,Net-(U1-FS)*%
X141937500Y-100475000D03*
%TO.P,U1,5,VIN*%
%TO.N,Net-(D1-K)*%
X146262500Y-100475000D03*
%TO.P,U1,6,VCC*%
%TO.N,Net-(U1-VCC)*%
X146262500Y-99825000D03*
%TO.P,U1,7,GND*%
%TO.N,GND*%
X146262500Y-99175000D03*
%TO.P,U1,8,LX*%
%TO.N,Net-(D1-A)*%
X146262500Y-98525000D03*
D12*
%TO.P,U1,9,GNDPAD*%
%TO.N,GND*%
X144100000Y-99500000D03*
%TD*%
D13*
%TO.P,R4,1*%
%TO.N,Net-(U1-FS)*%
X141675000Y-102100000D03*
%TO.P,R4,2*%
%TO.N,GND*%
X143325000Y-102100000D03*
%TD*%
D14*
%TO.P,R3,1*%
%TO.N,Net-(U1-EN)*%
X146525000Y-102100000D03*
%TO.P,R3,2*%
%TO.N,GND*%
X144875000Y-102100000D03*
%TD*%
D13*
%TO.P,R2,1*%
%TO.N,Net-(U1-ISNS)*%
X141775000Y-96900000D03*
%TO.P,R2,2*%
%TO.N,GND*%
X143425000Y-96900000D03*
%TD*%
D15*
%TO.P,R1,1*%
%TO.N,Net-(D1-K)*%
X148200000Y-101575000D03*
%TO.P,R1,2*%
%TO.N,Net-(U1-EN)*%
X148200000Y-103225000D03*
%TD*%
D16*
%TO.P,L1,2,2*%
%TO.N,Net-(J2-Pin_1)*%
X158050000Y-98500000D03*
%TO.P,L1,1,1*%
%TO.N,Net-(D1-A)*%
X154750000Y-98500000D03*
%TD*%
D17*
%TO.P,J5,1,Pin_1*%
%TO.N,GND*%
X139200000Y-102000000D03*
%TD*%
%TO.P,J4,1,Pin_1*%
%TO.N,Net-(J4-Pin_1)*%
X139200000Y-98000000D03*
%TD*%
D18*
%TO.P,J3,1,Pin_1*%
%TO.N,Net-(D1-K)*%
X153500000Y-102300000D03*
%TD*%
D17*
%TO.P,J2,1,Pin_1*%
%TO.N,Net-(J2-Pin_1)*%
X160800000Y-98000000D03*
%TD*%
%TO.P,J1,1,Pin_1*%
%TO.N,Net-(D1-K)*%
X160800000Y-102000000D03*
%TD*%
D19*
%TO.P,D1,2,A*%
%TO.N,Net-(D1-A)*%
X152600000Y-97250000D03*
%TO.P,D1,1,K*%
%TO.N,Net-(D1-K)*%
X152600000Y-99750000D03*
%TD*%
D20*
%TO.P,C3,1*%
%TO.N,Net-(U1-VCC)*%
X148200000Y-100075000D03*
%TO.P,C3,2*%
%TO.N,GND*%
X148200000Y-98525000D03*
%TD*%
D21*
%TO.P,C2,1*%
%TO.N,Net-(D1-K)*%
X150300000Y-101275000D03*
%TO.P,C2,2*%
%TO.N,GND*%
X150300000Y-98325000D03*
%TD*%
D22*
%TO.N,Net-(U1-VCC)*%
X145360000Y-99780000D03*
%TO.N,GND*%
X150800000Y-98300000D03*
X149800000Y-98300000D03*
X144400000Y-96900000D03*
X144100000Y-98200000D03*
X144100000Y-100800000D03*
X144875000Y-102100000D03*
X143325000Y-102100000D03*
X143425000Y-96900000D03*
X144100000Y-99500000D03*
X144700000Y-100100000D03*
X143500000Y-100100000D03*
X144700000Y-98900000D03*
X143500000Y-98900000D03*
X148200000Y-98525000D03*
%TD*%
D23*
%TO.N,Net-(J2-Pin_1)*%
X158350000Y-99224264D02*
G75*
G03*
X158049989Y-98500011I-1024300J-36D01*
G01*
X158350000Y-101800000D02*
X158350000Y-99224264D01*
%TO.N,Net-(D1-K)*%
X156450000Y-101800000D02*
X156450000Y-103179290D01*
X156400000Y-103300000D02*
X155914213Y-103300000D01*
X156450000Y-103179290D02*
G75*
G02*
X156400003Y-103300003I-170700J-10D01*
G01*
X158830000Y-103300000D02*
X156400000Y-103300000D01*
X155914213Y-103300000D02*
G75*
G02*
X153499996Y-102300004I-13J3414200D01*
G01*
X160049896Y-102794702D02*
G75*
G02*
X158830000Y-103299998I-1219896J1219902D01*
G01*
X160798377Y-102033292D02*
X160797813Y-102046785D01*
X160797813Y-102046785D02*
X160049896Y-102794702D01*
X160800000Y-102000000D02*
X160798377Y-102033292D01*
D24*
%TO.N,Net-(U1-VCC)*%
X145468639Y-99825000D02*
G75*
G02*
X145359988Y-99780012I-39J153600D01*
G01*
X146262500Y-99825000D02*
X145468639Y-99825000D01*
D25*
%TO.N,Net-(U1-ISNS)*%
X141937500Y-98222500D02*
X141937500Y-98525000D01*
X141940000Y-98220000D02*
X141937500Y-98222500D01*
D23*
X141940000Y-97298345D02*
X141940000Y-98220000D01*
X141775000Y-96900000D02*
G75*
G02*
X141939981Y-97298345I-398300J-398300D01*
G01*
%TO.N,Net-(J2-Pin_1)*%
X158148995Y-98261005D02*
X158410000Y-98000000D01*
X158050000Y-98500000D02*
G75*
G02*
X158148993Y-98261003I338000J0D01*
G01*
X160800000Y-98000000D02*
X158410000Y-98000000D01*
%TO.N,Net-(D1-A)*%
X154750000Y-98500000D02*
X154750000Y-97974264D01*
X154750000Y-97974264D02*
G75*
G03*
X154449989Y-97250011I-1024300J-36D01*
G01*
X152600000Y-97250000D02*
X154450000Y-97250000D01*
D26*
%TO.N,Net-(D1-K)*%
X152600000Y-101357782D02*
G75*
G02*
X152499436Y-101600564I-343300J-18D01*
G01*
X152600000Y-99750000D02*
X152600000Y-101357782D01*
X153500000Y-102300000D02*
G75*
G03*
X151025432Y-101274987I-2474600J-2474600D01*
G01*
X151025432Y-101275000D02*
X150300000Y-101275000D01*
X149575736Y-101575000D02*
X148200000Y-101575000D01*
X150300000Y-101275000D02*
G75*
G02*
X149575736Y-101575015I-724300J724300D01*
G01*
D25*
%TO.N,Net-(D1-A)*%
X146262500Y-98238106D02*
X146262500Y-98525000D01*
X146270000Y-98220000D02*
X146262500Y-98238106D01*
D23*
X146270000Y-98149827D02*
X146270000Y-98220000D01*
X147597401Y-96780000D02*
G75*
G03*
X146680000Y-97160000I-1J-1297400D01*
G01*
X146680000Y-97160000D02*
G75*
G03*
X146270011Y-98149827I989800J-989800D01*
G01*
X151465320Y-96780000D02*
X150000000Y-96780000D01*
X152600000Y-97250000D02*
G75*
G03*
X151465320Y-96779992I-1134700J-1134700D01*
G01*
X150000000Y-96780000D02*
X147597401Y-96780000D01*
D27*
%TO.N,Net-(J4-Pin_1)*%
X139270145Y-98070146D02*
X139200000Y-98000000D01*
X141937500Y-99175000D02*
G75*
G02*
X139270147Y-98070144I0J3772200D01*
G01*
D25*
%TO.N,Net-(D1-K)*%
X147692202Y-101067202D02*
X148200000Y-101575000D01*
X146262500Y-100475000D02*
G75*
G02*
X147692201Y-101067203I0J-2021900D01*
G01*
%TO.N,Net-(U1-VCC)*%
X146262500Y-99825000D02*
X147596447Y-99825000D01*
X147596447Y-99825000D02*
G75*
G02*
X148199986Y-100075014I-47J-853600D01*
G01*
%TO.N,GND*%
X144884619Y-99175000D02*
G75*
G03*
X144099994Y-99499994I-19J-1109600D01*
G01*
X146262500Y-99175000D02*
X144884619Y-99175000D01*
D28*
%TO.N,Net-(U1-EN)*%
X146525000Y-103164645D02*
G75*
G02*
X146499987Y-103224987I-85400J45D01*
G01*
X146525000Y-102100000D02*
X146525000Y-103164645D01*
X146500000Y-103225000D02*
X148200000Y-103225000D01*
X141627340Y-103225000D02*
X146500000Y-103225000D01*
X141056274Y-102986274D02*
X141060000Y-102990000D01*
X141937500Y-99825000D02*
X141231776Y-99825000D01*
X141060000Y-102990000D02*
G75*
G03*
X141627340Y-103224983I567300J567300D01*
G01*
X140830000Y-100191421D02*
X140830000Y-102440000D01*
X140930000Y-99950000D02*
G75*
G03*
X140830009Y-100191421I241400J-241400D01*
G01*
X140830000Y-102440000D02*
G75*
G03*
X141056263Y-102986285I772600J0D01*
G01*
X141231776Y-99825000D02*
G75*
G03*
X140930007Y-99950007I24J-426800D01*
G01*
%TO.N,Net-(U1-FS)*%
X141822781Y-100475000D02*
G75*
G03*
X141690005Y-100530005I19J-187800D01*
G01*
X141937500Y-100475000D02*
X141822781Y-100475000D01*
X141675000Y-100566213D02*
G75*
G02*
X141689996Y-100529996I51200J13D01*
G01*
X141675000Y-102100000D02*
X141675000Y-100566213D01*
D26*
%TO.N,GND*%
X150300000Y-98325000D02*
X148682842Y-98325000D01*
X148682842Y-98325000D02*
G75*
G03*
X148199987Y-98524987I-42J-682800D01*
G01*
D25*
X146262500Y-99175000D02*
X146630762Y-99175000D01*
X146630762Y-99175000D02*
G75*
G03*
X148200011Y-98525011I38J2219200D01*
G01*
%TD*%
%TA.AperFunction,Conductor*%
%TO.N,GND*%
G36*
X141306782Y-96222174D02*
G01*
X141328456Y-96274500D01*
X141306782Y-96326826D01*
X141246949Y-96386658D01*
X141246948Y-96386659D01*
X141189354Y-96499694D01*
X141189352Y-96499698D01*
X141188397Y-96505731D01*
X141177967Y-96533521D01*
X141139877Y-96594141D01*
X141139875Y-96594146D01*
X141087745Y-96743126D01*
X141087742Y-96743137D01*
X141070068Y-96900000D01*
X141087742Y-97056862D01*
X141087745Y-97056873D01*
X141139877Y-97205858D01*
X141139877Y-97205859D01*
X141177966Y-97266476D01*
X141188398Y-97294269D01*
X141189353Y-97300304D01*
X141231434Y-97382889D01*
X141239500Y-97416485D01*
X141239500Y-98086043D01*
X141217826Y-98138369D01*
X141195392Y-98153737D01*
X141152235Y-98172793D01*
X141072794Y-98252234D01*
X141027414Y-98355011D01*
X141024500Y-98380135D01*
X141024500Y-98653851D01*
X141002826Y-98706177D01*
X140950500Y-98727851D01*
X140925570Y-98723525D01*
X140612357Y-98611455D01*
X140605648Y-98608676D01*
X140492860Y-98555331D01*
X140454825Y-98513366D01*
X140450499Y-98488436D01*
X140450499Y-97145744D01*
X140450499Y-97145741D01*
X140450499Y-97145736D01*
X140447646Y-97115302D01*
X140447643Y-97115292D01*
X140402794Y-96987119D01*
X140402792Y-96987116D01*
X140322153Y-96877853D01*
X140322146Y-96877846D01*
X140212883Y-96797207D01*
X140212880Y-96797205D01*
X140084707Y-96752356D01*
X140084700Y-96752354D01*
X140077935Y-96751719D01*
X140054265Y-96749500D01*
X140054258Y-96749500D01*
X138345744Y-96749500D01*
X138345731Y-96749501D01*
X138315304Y-96752353D01*
X138315295Y-96752355D01*
X138187119Y-96797205D01*
X138187116Y-96797207D01*
X138077853Y-96877846D01*
X138077846Y-96877853D01*
X137997207Y-96987116D01*
X137997205Y-96987119D01*
X137952356Y-97115292D01*
X137952354Y-97115299D01*
X137952354Y-97115302D01*
X137949500Y-97145735D01*
X137949500Y-97145736D01*
X137949500Y-97145741D01*
X137949500Y-98854255D01*
X137949501Y-98854268D01*
X137952353Y-98884695D01*
X137952355Y-98884704D01*
X137997205Y-99012880D01*
X137997207Y-99012883D01*
X138077846Y-99122146D01*
X138077853Y-99122153D01*
X138187116Y-99202792D01*
X138187119Y-99202794D01*
X138315292Y-99247643D01*
X138315299Y-99247645D01*
X138315302Y-99247646D01*
X138345735Y-99250500D01*
X140054264Y-99250499D01*
X140084698Y-99247646D01*
X140212882Y-99202793D01*
X140269234Y-99161202D01*
X140324204Y-99147569D01*
X140344446Y-99153674D01*
X140377457Y-99169068D01*
X140377459Y-99169068D01*
X140377464Y-99169071D01*
X140601189Y-99250500D01*
X140711646Y-99290703D01*
X141008369Y-99370209D01*
X141053303Y-99404688D01*
X141056911Y-99411797D01*
X141063353Y-99426386D01*
X141064662Y-99483008D01*
X141025550Y-99523971D01*
X141015731Y-99527075D01*
X141015816Y-99527354D01*
X141012338Y-99528409D01*
X141012334Y-99528410D01*
X141012329Y-99528411D01*
X141012329Y-99528412D01*
X140875432Y-99585120D01*
X140752235Y-99667440D01*
X140752230Y-99667444D01*
X140721517Y-99698157D01*
X140721489Y-99698168D01*
X140653385Y-99766276D01*
X140653379Y-99766284D01*
X140580395Y-99875513D01*
X140580390Y-99875523D01*
X140530121Y-99996895D01*
X140530119Y-99996901D01*
X140504496Y-100125751D01*
X140504500Y-100183450D01*
X140504500Y-100743331D01*
X140482826Y-100795657D01*
X140430500Y-100817331D01*
X140385787Y-100802295D01*
X140272093Y-100716079D01*
X140131444Y-100660614D01*
X140043060Y-100650000D01*
X139350000Y-100650000D01*
X139350000Y-101470790D01*
X139272409Y-101450000D01*
X139127591Y-101450000D01*
X139050000Y-101470790D01*
X139050000Y-100650000D01*
X138356939Y-100650000D01*
X138356937Y-100650001D01*
X138268560Y-100660612D01*
X138268558Y-100660613D01*
X138127906Y-100716079D01*
X138007435Y-100807434D01*
X138007434Y-100807435D01*
X137916079Y-100927906D01*
X137860614Y-101068555D01*
X137850000Y-101156939D01*
X137850000Y-101850000D01*
X138670791Y-101850000D01*
X138650000Y-101927591D01*
X138650000Y-102072409D01*
X138670791Y-102150000D01*
X137850001Y-102150000D01*
X137850001Y-102843062D01*
X137860612Y-102931439D01*
X137860613Y-102931441D01*
X137916079Y-103072093D01*
X138007434Y-103192564D01*
X138007435Y-103192565D01*
X138127906Y-103283920D01*
X138268555Y-103339385D01*
X138356939Y-103349999D01*
X139050000Y-103349999D01*
X139050000Y-102529209D01*
X139127591Y-102550000D01*
X139272409Y-102550000D01*
X139350000Y-102529209D01*
X139350000Y-103349999D01*
X140043061Y-103349999D01*
X140043062Y-103349998D01*
X140131439Y-103339387D01*
X140131441Y-103339386D01*
X140272093Y-103283920D01*
X140392564Y-103192565D01*
X140392565Y-103192564D01*
X140483920Y-103072092D01*
X140514580Y-102994344D01*
X140553939Y-102953617D01*
X140610567Y-102952649D01*
X140649356Y-102987896D01*
X140663414Y-103015488D01*
X140704536Y-103072092D01*
X140764998Y-103155318D01*
X140783176Y-103173497D01*
X140789887Y-103180210D01*
X140789912Y-103180238D01*
X140793220Y-103183546D01*
X140793225Y-103183552D01*
X140808813Y-103199140D01*
X140808830Y-103199180D01*
X140829825Y-103220174D01*
X140829825Y-103220175D01*
X140881824Y-103272173D01*
X140892593Y-103282942D01*
X140933800Y-103312880D01*
X141036219Y-103387290D01*
X141194401Y-103467884D01*
X141363245Y-103522739D01*
X141538591Y-103550504D01*
X141627356Y-103550500D01*
X146457147Y-103550500D01*
X146468561Y-103550500D01*
X146480137Y-103551411D01*
X146481933Y-103551695D01*
X146500000Y-103554557D01*
X146518066Y-103551695D01*
X146519863Y-103551411D01*
X146531439Y-103550500D01*
X147494107Y-103550500D01*
X147546433Y-103572174D01*
X147560040Y-103590903D01*
X147596695Y-103662842D01*
X147596951Y-103663343D01*
X147606782Y-103673174D01*
X147628456Y-103725500D01*
X147606782Y-103777826D01*
X147554456Y-103799500D01*
X138005824Y-103799500D01*
X137994249Y-103798589D01*
X137971822Y-103795037D01*
X137919025Y-103786674D01*
X137897007Y-103779520D01*
X137834400Y-103747621D01*
X137815669Y-103734012D01*
X137765987Y-103684330D01*
X137752378Y-103665599D01*
X137720479Y-103602992D01*
X137713325Y-103580973D01*
X137711931Y-103572174D01*
X137701411Y-103505751D01*
X137700500Y-103494175D01*
X137700500Y-96505824D01*
X137701411Y-96494248D01*
X137706817Y-96460118D01*
X137713325Y-96419023D01*
X137720479Y-96397007D01*
X137752380Y-96334397D01*
X137765984Y-96315672D01*
X137815672Y-96265984D01*
X137834397Y-96252380D01*
X137897008Y-96220478D01*
X137919023Y-96213325D01*
X137994248Y-96201410D01*
X138005824Y-96200500D01*
X138039882Y-96200500D01*
X141254456Y-96200500D01*
X141306782Y-96222174D01*
G37*
%TD.AperFunction*%
%TA.AperFunction,Conductor*%
G36*
X142822691Y-96222174D02*
G01*
X142844365Y-96274500D01*
X142829605Y-96318847D01*
X142781646Y-96382911D01*
X142781645Y-96382912D01*
X142731403Y-96517619D01*
X142731402Y-96517624D01*
X142725000Y-96577171D01*
X142725000Y-96750000D01*
X144125000Y-96750000D01*
X144125000Y-96577171D01*
X144118597Y-96517624D01*
X144118596Y-96517619D01*
X144068354Y-96382912D01*
X144068353Y-96382911D01*
X144020395Y-96318847D01*
X144006388Y-96263969D01*
X144035288Y-96215260D01*
X144079635Y-96200500D01*
X146572388Y-96200500D01*
X146624714Y-96222174D01*
X146646388Y-96274500D01*
X146624714Y-96326826D01*
X146611761Y-96337154D01*
X146504970Y-96404256D01*
X146439445Y-96445428D01*
X146264010Y-96585333D01*
X146206354Y-96642990D01*
X146206326Y-96643001D01*
X146101261Y-96748066D01*
X145954174Y-96932508D01*
X145828662Y-97132261D01*
X145726313Y-97344797D01*
X145726310Y-97344804D01*
X145648397Y-97567474D01*
X145648395Y-97567483D01*
X145602696Y-97767722D01*
X145595908Y-97797464D01*
X145570331Y-98024500D01*
X145569498Y-98031890D01*
X145569499Y-98083835D01*
X145547826Y-98136161D01*
X145525390Y-98151530D01*
X145477235Y-98172793D01*
X145397794Y-98252234D01*
X145352414Y-98355011D01*
X145349500Y-98380135D01*
X145349500Y-98669863D01*
X145352414Y-98694986D01*
X145352416Y-98694995D01*
X145366217Y-98726251D01*
X145367525Y-98782873D01*
X145350849Y-98808465D01*
X145322355Y-98836959D01*
X145264836Y-98949847D01*
X145264835Y-98949851D01*
X145252933Y-99025000D01*
X147272066Y-99025000D01*
X147272065Y-99024999D01*
X147260165Y-98949853D01*
X147260163Y-98949847D01*
X147202639Y-98836953D01*
X147174151Y-98808465D01*
X147152477Y-98756139D01*
X147158782Y-98726251D01*
X147172585Y-98694991D01*
X147172809Y-98693061D01*
X149100000Y-98693061D01*
X149110614Y-98781443D01*
X149166077Y-98922092D01*
X149257435Y-99042564D01*
X149377907Y-99133922D01*
X149518556Y-99189385D01*
X149606939Y-99200000D01*
X150150000Y-99200000D01*
X150450000Y-99200000D01*
X150993061Y-99200000D01*
X151081443Y-99189385D01*
X151222092Y-99133922D01*
X151342564Y-99042564D01*
X151433922Y-98922092D01*
X151489385Y-98781443D01*
X151500000Y-98693061D01*
X151500000Y-98475000D01*
X150450000Y-98475000D01*
X150450000Y-99200000D01*
X150150000Y-99200000D01*
X150150000Y-98475000D01*
X149100000Y-98475000D01*
X149100000Y-98693061D01*
X147172809Y-98693061D01*
X147175500Y-98669865D01*
X147175499Y-98380136D01*
X147172585Y-98355009D01*
X147127206Y-98252235D01*
X147047765Y-98172794D01*
X147047764Y-98172793D01*
X147020553Y-98160778D01*
X146981441Y-98119815D01*
X146976800Y-98085832D01*
X146982112Y-98031890D01*
X146983221Y-98020626D01*
X146986048Y-98006416D01*
X147021616Y-97889157D01*
X147027159Y-97875776D01*
X147084917Y-97767716D01*
X147092973Y-97755661D01*
X147170650Y-97661009D01*
X147180905Y-97650752D01*
X147260151Y-97585716D01*
X147272203Y-97577664D01*
X147362554Y-97529369D01*
X147375943Y-97523823D01*
X147473984Y-97494083D01*
X147488197Y-97491256D01*
X147593796Y-97480855D01*
X147601048Y-97480500D01*
X147676328Y-97480500D01*
X149205718Y-97480500D01*
X149258044Y-97502174D01*
X149279718Y-97554500D01*
X149259708Y-97602806D01*
X149260494Y-97603402D01*
X149258220Y-97606400D01*
X149258044Y-97606826D01*
X149257437Y-97607432D01*
X149166077Y-97727907D01*
X149110614Y-97868556D01*
X149100000Y-97956938D01*
X149100000Y-98175000D01*
X151500000Y-98175000D01*
X151500000Y-97956938D01*
X151489385Y-97868556D01*
X151433922Y-97727907D01*
X151342562Y-97607432D01*
X151341956Y-97606826D01*
X151341779Y-97606400D01*
X151339506Y-97603402D01*
X151340291Y-97602806D01*
X151320282Y-97554500D01*
X151341956Y-97502174D01*
X151394282Y-97480500D01*
X151462401Y-97480500D01*
X151468207Y-97480727D01*
X151600956Y-97491177D01*
X151612420Y-97492993D01*
X151739058Y-97523397D01*
X151750093Y-97526983D01*
X151870427Y-97576827D01*
X151880768Y-97582097D01*
X151884611Y-97584452D01*
X151915793Y-97623107D01*
X151947205Y-97712880D01*
X151947207Y-97712883D01*
X152027846Y-97822146D01*
X152027853Y-97822153D01*
X152137116Y-97902792D01*
X152137118Y-97902793D01*
X152265295Y-97947644D01*
X152265301Y-97947646D01*
X152295734Y-97950500D01*
X152531007Y-97950500D01*
X152556507Y-97950500D01*
X152564791Y-97950964D01*
X152600000Y-97954932D01*
X152635208Y-97950964D01*
X152643493Y-97950500D01*
X153625500Y-97950500D01*
X153677826Y-97972174D01*
X153699500Y-98024500D01*
X153699500Y-100369748D01*
X153707255Y-100408736D01*
X153711133Y-100428232D01*
X153720054Y-100441582D01*
X153755448Y-100494552D01*
X153775721Y-100508098D01*
X153821767Y-100538866D01*
X153821768Y-100538866D01*
X153821769Y-100538867D01*
X153880252Y-100550500D01*
X153880254Y-100550500D01*
X155619746Y-100550500D01*
X155619748Y-100550500D01*
X155678231Y-100538867D01*
X155744552Y-100494552D01*
X155788867Y-100428231D01*
X155800500Y-100369748D01*
X155800500Y-96630252D01*
X155788867Y-96571769D01*
X155744552Y-96505448D01*
X155722343Y-96490608D01*
X155678232Y-96461133D01*
X155678233Y-96461133D01*
X155648989Y-96455316D01*
X155619748Y-96449500D01*
X153880252Y-96449500D01*
X153851010Y-96455316D01*
X153821767Y-96461133D01*
X153755449Y-96505447D01*
X153755447Y-96505449D01*
X153747988Y-96516613D01*
X153700896Y-96548078D01*
X153686460Y-96549500D01*
X152887178Y-96549500D01*
X152841040Y-96533355D01*
X152801360Y-96501711D01*
X152801355Y-96501707D01*
X152582137Y-96363962D01*
X152582135Y-96363961D01*
X152534812Y-96341171D01*
X152497073Y-96298941D01*
X152500248Y-96242393D01*
X152542479Y-96204653D01*
X152566920Y-96200500D01*
X161960118Y-96200500D01*
X161994176Y-96200500D01*
X162005751Y-96201410D01*
X162080974Y-96213325D01*
X162102992Y-96220479D01*
X162165599Y-96252378D01*
X162184330Y-96265987D01*
X162234012Y-96315669D01*
X162247621Y-96334400D01*
X162279520Y-96397007D01*
X162286674Y-96419025D01*
X162298589Y-96494247D01*
X162299500Y-96505824D01*
X162299500Y-103494175D01*
X162298589Y-103505752D01*
X162286674Y-103580974D01*
X162279520Y-103602992D01*
X162247621Y-103665599D01*
X162234012Y-103684330D01*
X162184330Y-103734012D01*
X162165599Y-103747621D01*
X162102992Y-103779520D01*
X162080974Y-103786674D01*
X162023749Y-103795738D01*
X162005750Y-103798589D01*
X161994176Y-103799500D01*
X160105575Y-103799500D01*
X160053249Y-103777826D01*
X160031575Y-103725500D01*
X160053249Y-103673174D01*
X160066201Y-103662844D01*
X160235889Y-103556223D01*
X160448898Y-103386356D01*
X160492221Y-103343031D01*
X160492228Y-103343026D01*
X160496437Y-103338817D01*
X160496439Y-103338816D01*
X160563081Y-103272172D01*
X160615406Y-103250499D01*
X161654256Y-103250499D01*
X161654264Y-103250499D01*
X161684698Y-103247646D01*
X161763241Y-103220163D01*
X161812880Y-103202794D01*
X161812883Y-103202792D01*
X161817832Y-103199140D01*
X161922150Y-103122150D01*
X162002793Y-103012882D01*
X162009582Y-102993482D01*
X162047643Y-102884707D01*
X162047645Y-102884700D01*
X162047646Y-102884698D01*
X162050500Y-102854265D01*
X162050499Y-101145736D01*
X162047646Y-101115302D01*
X162046532Y-101112118D01*
X162002794Y-100987119D01*
X162002792Y-100987116D01*
X161922153Y-100877853D01*
X161922146Y-100877846D01*
X161812883Y-100797207D01*
X161812880Y-100797205D01*
X161684707Y-100752356D01*
X161684700Y-100752354D01*
X161677935Y-100751719D01*
X161654265Y-100749500D01*
X161654258Y-100749500D01*
X159945744Y-100749500D01*
X159945731Y-100749501D01*
X159915304Y-100752353D01*
X159915295Y-100752355D01*
X159787119Y-100797205D01*
X159787116Y-100797207D01*
X159677853Y-100877846D01*
X159677846Y-100877853D01*
X159597207Y-100987116D01*
X159597205Y-100987119D01*
X159552356Y-101115292D01*
X159552354Y-101115299D01*
X159552354Y-101115302D01*
X159549500Y-101145735D01*
X159549500Y-101145736D01*
X159549500Y-101145741D01*
X159549500Y-102269584D01*
X159527826Y-102321910D01*
X159523559Y-102325854D01*
X159436727Y-102400016D01*
X159427333Y-102406842D01*
X159300168Y-102484768D01*
X159289822Y-102490039D01*
X159152026Y-102547117D01*
X159140986Y-102550704D01*
X159098055Y-102561010D01*
X159042117Y-102552150D01*
X159008826Y-102506329D01*
X159010935Y-102464614D01*
X159032215Y-102403798D01*
X159047646Y-102359699D01*
X159050500Y-102329266D01*
X159050500Y-101270734D01*
X159050500Y-100508098D01*
X159062972Y-100466985D01*
X159088866Y-100428232D01*
X159088865Y-100428232D01*
X159088867Y-100428231D01*
X159100500Y-100369748D01*
X159100500Y-98774500D01*
X159122174Y-98722174D01*
X159174500Y-98700500D01*
X159475501Y-98700500D01*
X159527827Y-98722174D01*
X159549501Y-98774500D01*
X159549501Y-98854268D01*
X159552353Y-98884695D01*
X159552355Y-98884704D01*
X159597205Y-99012880D01*
X159597207Y-99012883D01*
X159677846Y-99122146D01*
X159677853Y-99122153D01*
X159787116Y-99202792D01*
X159787119Y-99202794D01*
X159915292Y-99247643D01*
X159915299Y-99247645D01*
X159915302Y-99247646D01*
X159945735Y-99250500D01*
X161654264Y-99250499D01*
X161684698Y-99247646D01*
X161684707Y-99247643D01*
X161812880Y-99202794D01*
X161812883Y-99202792D01*
X161846675Y-99177853D01*
X161922150Y-99122150D01*
X162002793Y-99012882D01*
X162005547Y-99005013D01*
X162047643Y-98884707D01*
X162047645Y-98884700D01*
X162047646Y-98884698D01*
X162050500Y-98854265D01*
X162050499Y-97145736D01*
X162047646Y-97115302D01*
X162047643Y-97115292D01*
X162002794Y-96987119D01*
X162002792Y-96987116D01*
X161922153Y-96877853D01*
X161922146Y-96877846D01*
X161812883Y-96797207D01*
X161812880Y-96797205D01*
X161684707Y-96752356D01*
X161684700Y-96752354D01*
X161677935Y-96751719D01*
X161654265Y-96749500D01*
X161654258Y-96749500D01*
X159945744Y-96749500D01*
X159945731Y-96749501D01*
X159915304Y-96752353D01*
X159915295Y-96752355D01*
X159787119Y-96797205D01*
X159787116Y-96797207D01*
X159677853Y-96877846D01*
X159677846Y-96877853D01*
X159597207Y-96987116D01*
X159597205Y-96987119D01*
X159552356Y-97115292D01*
X159552354Y-97115299D01*
X159552354Y-97115302D01*
X159549500Y-97145735D01*
X159549500Y-97145736D01*
X159549500Y-97145741D01*
X159549500Y-97225500D01*
X159527826Y-97277826D01*
X159475500Y-97299500D01*
X159174500Y-97299500D01*
X159122174Y-97277826D01*
X159100500Y-97225500D01*
X159100500Y-96630253D01*
X159091565Y-96585333D01*
X159088867Y-96571769D01*
X159044552Y-96505448D01*
X159022343Y-96490608D01*
X158978232Y-96461133D01*
X158978233Y-96461133D01*
X158948989Y-96455316D01*
X158919748Y-96449500D01*
X157180252Y-96449500D01*
X157151010Y-96455316D01*
X157121767Y-96461133D01*
X157055449Y-96505447D01*
X157055447Y-96505449D01*
X157011133Y-96571767D01*
X157006683Y-96594141D01*
X156999500Y-96630252D01*
X156999500Y-100369748D01*
X157007255Y-100408736D01*
X157011133Y-100428232D01*
X157020054Y-100441582D01*
X157055448Y-100494552D01*
X157075721Y-100508098D01*
X157121767Y-100538866D01*
X157121768Y-100538866D01*
X157121769Y-100538867D01*
X157180252Y-100550500D01*
X157575500Y-100550500D01*
X157627826Y-100572174D01*
X157649500Y-100624500D01*
X157649500Y-101270734D01*
X157649500Y-102329266D01*
X157652354Y-102359699D01*
X157652354Y-102359701D01*
X157652355Y-102359704D01*
X157697205Y-102487877D01*
X157697207Y-102487882D01*
X157697209Y-102487885D01*
X157698814Y-102490922D01*
X157699013Y-102493044D01*
X157699038Y-102493116D01*
X157699020Y-102493122D01*
X157704101Y-102547312D01*
X157667967Y-102590925D01*
X157633389Y-102599500D01*
X157224500Y-102599500D01*
X157172174Y-102577826D01*
X157150500Y-102525500D01*
X157150500Y-101270740D01*
X157150500Y-101270734D01*
X157147646Y-101240301D01*
X157118476Y-101156939D01*
X157102793Y-101112118D01*
X157102792Y-101112116D01*
X157022153Y-101002853D01*
X157022146Y-101002846D01*
X156912883Y-100922207D01*
X156912881Y-100922206D01*
X156784704Y-100877355D01*
X156784705Y-100877355D01*
X156784700Y-100877354D01*
X156784699Y-100877354D01*
X156754266Y-100874500D01*
X156145734Y-100874500D01*
X156115301Y-100877354D01*
X156115299Y-100877354D01*
X156115295Y-100877355D01*
X155987118Y-100922206D01*
X155987116Y-100922207D01*
X155877853Y-101002846D01*
X155877846Y-101002853D01*
X155797207Y-101112116D01*
X155797206Y-101112118D01*
X155752355Y-101240295D01*
X155752354Y-101240299D01*
X155752354Y-101240301D01*
X155749500Y-101270734D01*
X155749500Y-101270740D01*
X155749500Y-102511977D01*
X155727826Y-102564303D01*
X155675500Y-102585977D01*
X155671352Y-102585861D01*
X155614521Y-102582670D01*
X155606274Y-102581741D01*
X155314446Y-102532159D01*
X155306355Y-102530312D01*
X155021919Y-102448368D01*
X155014086Y-102445627D01*
X154796180Y-102355367D01*
X154756132Y-102315318D01*
X154750499Y-102287000D01*
X154750499Y-101445744D01*
X154750499Y-101445736D01*
X154747646Y-101415302D01*
X154747644Y-101415295D01*
X154702794Y-101287119D01*
X154702792Y-101287116D01*
X154622153Y-101177853D01*
X154622146Y-101177846D01*
X154512883Y-101097207D01*
X154512880Y-101097205D01*
X154384707Y-101052356D01*
X154384700Y-101052354D01*
X154377089Y-101051640D01*
X154354265Y-101049500D01*
X154354259Y-101049500D01*
X153274500Y-101049500D01*
X153222174Y-101027826D01*
X153200500Y-100975500D01*
X153200500Y-100308086D01*
X153214960Y-100264143D01*
X153252793Y-100212882D01*
X153258499Y-100196577D01*
X153283281Y-100125751D01*
X153297646Y-100084699D01*
X153300500Y-100054266D01*
X153300500Y-99445734D01*
X153297646Y-99415301D01*
X153252793Y-99287118D01*
X153225768Y-99250500D01*
X153172153Y-99177853D01*
X153172146Y-99177846D01*
X153062883Y-99097207D01*
X153062881Y-99097206D01*
X152934704Y-99052355D01*
X152934705Y-99052355D01*
X152934700Y-99052354D01*
X152934699Y-99052354D01*
X152904266Y-99049500D01*
X152295734Y-99049500D01*
X152265301Y-99052354D01*
X152265299Y-99052354D01*
X152265295Y-99052355D01*
X152137118Y-99097206D01*
X152137116Y-99097207D01*
X152027853Y-99177846D01*
X152027846Y-99177853D01*
X151947207Y-99287116D01*
X151947206Y-99287118D01*
X151902355Y-99415295D01*
X151902354Y-99415299D01*
X151902354Y-99415301D01*
X151899500Y-99445734D01*
X151899500Y-100054266D01*
X151902354Y-100084699D01*
X151902354Y-100084701D01*
X151902355Y-100084704D01*
X151947205Y-100212880D01*
X151960131Y-100230393D01*
X151978563Y-100255368D01*
X151985040Y-100264143D01*
X151999500Y-100308086D01*
X151999500Y-100694821D01*
X151977826Y-100747147D01*
X151925500Y-100768821D01*
X151912656Y-100767697D01*
X151673352Y-100725500D01*
X151561096Y-100705705D01*
X151346892Y-100686964D01*
X151296654Y-100660812D01*
X151293820Y-100657212D01*
X151272150Y-100627850D01*
X151272145Y-100627846D01*
X151272144Y-100627845D01*
X151162883Y-100547207D01*
X151162881Y-100547206D01*
X151034704Y-100502355D01*
X151034705Y-100502355D01*
X151034700Y-100502354D01*
X151034699Y-100502354D01*
X151004266Y-100499500D01*
X149595734Y-100499500D01*
X149565301Y-100502354D01*
X149565299Y-100502354D01*
X149565295Y-100502355D01*
X149437118Y-100547206D01*
X149437116Y-100547207D01*
X149327853Y-100627846D01*
X149327846Y-100627853D01*
X149247207Y-100737116D01*
X149247206Y-100737118D01*
X149202355Y-100865295D01*
X149202354Y-100865299D01*
X149202354Y-100865301D01*
X149199500Y-100895734D01*
X149199500Y-100895740D01*
X149199500Y-100900500D01*
X149177826Y-100952826D01*
X149125500Y-100974500D01*
X148196545Y-100974500D01*
X148144219Y-100952826D01*
X148043219Y-100851826D01*
X148021545Y-100799500D01*
X148043219Y-100747174D01*
X148095545Y-100725500D01*
X148483489Y-100725500D01*
X148542970Y-100716079D01*
X148583126Y-100709719D01*
X148703220Y-100648528D01*
X148798528Y-100553220D01*
X148859719Y-100433126D01*
X148875500Y-100333488D01*
X148875500Y-99816512D01*
X148867543Y-99766276D01*
X148859719Y-99716874D01*
X148859718Y-99716873D01*
X148850187Y-99698168D01*
X148798528Y-99596780D01*
X148703220Y-99501472D01*
X148703219Y-99501471D01*
X148583126Y-99440281D01*
X148583125Y-99440280D01*
X148483489Y-99424500D01*
X148483488Y-99424500D01*
X147916512Y-99424500D01*
X147916511Y-99424500D01*
X147817387Y-99440199D01*
X147794233Y-99440199D01*
X147707035Y-99426386D01*
X147695162Y-99424505D01*
X147695160Y-99424504D01*
X147695158Y-99424504D01*
X147653238Y-99424502D01*
X147653198Y-99424500D01*
X147649174Y-99424500D01*
X147596469Y-99424500D01*
X147538886Y-99424497D01*
X147538885Y-99424497D01*
X147533507Y-99424497D01*
X147533467Y-99424500D01*
X147342951Y-99424500D01*
X147290625Y-99402826D01*
X147268951Y-99350500D01*
X147269862Y-99338924D01*
X147272067Y-99325000D01*
X145252934Y-99325000D01*
X145239915Y-99340242D01*
X145235990Y-99356587D01*
X145209721Y-99379021D01*
X145106778Y-99431473D01*
X145011471Y-99526780D01*
X144950281Y-99646873D01*
X144950280Y-99646873D01*
X144929196Y-99780000D01*
X144950280Y-99913126D01*
X145011471Y-100033219D01*
X145011472Y-100033220D01*
X145106780Y-100128528D01*
X145226874Y-100189719D01*
X145296839Y-100200800D01*
X145345130Y-100230393D01*
X145358352Y-100285465D01*
X145352959Y-100303775D01*
X145352414Y-100305007D01*
X145352414Y-100305009D01*
X145349500Y-100330135D01*
X145349500Y-100619863D01*
X145352414Y-100644986D01*
X145352415Y-100644992D01*
X145369663Y-100684054D01*
X145397794Y-100747765D01*
X145477235Y-100827206D01*
X145580009Y-100872585D01*
X145605135Y-100875500D01*
X146196296Y-100875499D01*
X146196306Y-100875500D01*
X146204917Y-100875500D01*
X146260071Y-100875500D01*
X146264910Y-100875657D01*
X146469300Y-100889054D01*
X146478896Y-100890317D01*
X146677392Y-100929801D01*
X146686739Y-100932306D01*
X146878391Y-100997363D01*
X146887331Y-101001065D01*
X147068860Y-101090586D01*
X147077225Y-101095416D01*
X147245518Y-101207866D01*
X147253188Y-101213751D01*
X147407197Y-101348814D01*
X147410721Y-101352114D01*
X147502826Y-101444219D01*
X147524500Y-101496545D01*
X147524500Y-101806519D01*
X147539353Y-101900304D01*
X147539354Y-101900306D01*
X147590948Y-102001563D01*
X147596950Y-102013342D01*
X147686658Y-102103050D01*
X147799696Y-102160646D01*
X147893481Y-102175500D01*
X148112322Y-102175499D01*
X148112332Y-102175500D01*
X148120943Y-102175500D01*
X149498291Y-102175500D01*
X149498323Y-102175501D01*
X149502838Y-102175500D01*
X149502843Y-102175502D01*
X149545091Y-102175500D01*
X149545125Y-102175514D01*
X149575757Y-102175513D01*
X149575757Y-102175514D01*
X149682248Y-102175510D01*
X149893408Y-102147704D01*
X150099131Y-102092576D01*
X150187107Y-102056132D01*
X150215427Y-102050500D01*
X151004258Y-102050500D01*
X151004266Y-102050500D01*
X151034699Y-102047646D01*
X151162882Y-102002793D01*
X151272150Y-101922150D01*
X151272152Y-101922146D01*
X151276072Y-101918228D01*
X151277501Y-101919657D01*
X151319682Y-101894235D01*
X151341578Y-101894208D01*
X151382686Y-101900306D01*
X151587413Y-101930676D01*
X151594535Y-101932093D01*
X151863462Y-101999457D01*
X151870394Y-102001560D01*
X152131430Y-102094962D01*
X152138132Y-102097738D01*
X152207139Y-102130376D01*
X152245174Y-102172341D01*
X152249500Y-102197271D01*
X152249500Y-103154255D01*
X152249501Y-103154268D01*
X152252353Y-103184695D01*
X152252355Y-103184704D01*
X152297205Y-103312880D01*
X152297207Y-103312883D01*
X152377846Y-103422146D01*
X152377853Y-103422153D01*
X152487116Y-103502792D01*
X152487119Y-103502794D01*
X152615292Y-103547643D01*
X152615299Y-103547645D01*
X152615302Y-103547646D01*
X152645735Y-103550500D01*
X154020556Y-103550499D01*
X154051829Y-103557432D01*
X154221489Y-103636544D01*
X154268429Y-103658433D01*
X154306693Y-103700190D01*
X154304223Y-103756773D01*
X154262466Y-103795037D01*
X154237156Y-103799500D01*
X148845544Y-103799500D01*
X148793218Y-103777826D01*
X148771544Y-103725500D01*
X148793218Y-103673174D01*
X148803050Y-103663342D01*
X148860646Y-103550304D01*
X148875500Y-103456519D01*
X148875499Y-102993482D01*
X148874614Y-102987896D01*
X148860646Y-102899695D01*
X148860645Y-102899693D01*
X148822841Y-102825500D01*
X148803050Y-102786658D01*
X148713342Y-102696950D01*
X148600304Y-102639354D01*
X148600302Y-102639353D01*
X148600301Y-102639353D01*
X148506519Y-102624500D01*
X147893480Y-102624500D01*
X147799695Y-102639353D01*
X147799693Y-102639354D01*
X147686657Y-102696950D01*
X147596951Y-102786656D01*
X147596950Y-102786658D01*
X147562503Y-102854265D01*
X147560041Y-102859096D01*
X147516974Y-102895878D01*
X147494107Y-102899500D01*
X146924500Y-102899500D01*
X146872174Y-102877826D01*
X146850500Y-102825500D01*
X146850500Y-102805892D01*
X146872174Y-102753566D01*
X146890897Y-102739962D01*
X146963342Y-102703050D01*
X147053050Y-102613342D01*
X147110646Y-102500304D01*
X147125500Y-102406519D01*
X147125499Y-101793482D01*
X147113484Y-101717619D01*
X147110646Y-101699695D01*
X147110645Y-101699693D01*
X147053049Y-101586657D01*
X146963343Y-101496951D01*
X146963342Y-101496950D01*
X146850304Y-101439354D01*
X146850302Y-101439353D01*
X146850301Y-101439353D01*
X146756519Y-101424500D01*
X146293480Y-101424500D01*
X146199695Y-101439353D01*
X146199693Y-101439354D01*
X146086657Y-101496950D01*
X145996951Y-101586656D01*
X145939353Y-101699698D01*
X145924500Y-101793480D01*
X145924500Y-102406519D01*
X145939353Y-102500304D01*
X145939354Y-102500306D01*
X145988700Y-102597150D01*
X145996950Y-102613342D01*
X146086658Y-102703050D01*
X146159097Y-102739959D01*
X146195878Y-102783024D01*
X146199500Y-102805892D01*
X146199500Y-102825500D01*
X146177826Y-102877826D01*
X146125500Y-102899500D01*
X145431023Y-102899500D01*
X145378697Y-102877826D01*
X145357023Y-102825500D01*
X145378697Y-102773174D01*
X145386676Y-102766260D01*
X145432188Y-102732188D01*
X145518353Y-102617088D01*
X145518354Y-102617087D01*
X145568596Y-102482380D01*
X145568597Y-102482375D01*
X145575000Y-102422828D01*
X145575000Y-102250000D01*
X144175000Y-102250000D01*
X144175000Y-102422828D01*
X144181402Y-102482375D01*
X144181403Y-102482380D01*
X144231645Y-102617087D01*
X144231646Y-102617088D01*
X144317811Y-102732188D01*
X144363324Y-102766260D01*
X144392224Y-102814969D01*
X144378217Y-102869847D01*
X144329508Y-102898747D01*
X144318977Y-102899500D01*
X143881023Y-102899500D01*
X143828697Y-102877826D01*
X143807023Y-102825500D01*
X143828697Y-102773174D01*
X143836676Y-102766260D01*
X143882188Y-102732188D01*
X143968353Y-102617088D01*
X143968354Y-102617087D01*
X144018596Y-102482380D01*
X144018597Y-102482375D01*
X144025000Y-102422828D01*
X144025000Y-102250000D01*
X142625000Y-102250000D01*
X142625000Y-102422828D01*
X142631402Y-102482375D01*
X142631403Y-102482380D01*
X142681645Y-102617087D01*
X142681646Y-102617088D01*
X142767811Y-102732188D01*
X142813324Y-102766260D01*
X142842224Y-102814969D01*
X142828217Y-102869847D01*
X142779508Y-102898747D01*
X142768977Y-102899500D01*
X142036021Y-102899500D01*
X141983695Y-102877826D01*
X141962021Y-102825500D01*
X141983695Y-102773174D01*
X142002425Y-102759566D01*
X142048417Y-102736130D01*
X142113342Y-102703050D01*
X142203050Y-102613342D01*
X142260646Y-102500304D01*
X142275500Y-102406519D01*
X142275499Y-101793482D01*
X142272916Y-101777171D01*
X142625000Y-101777171D01*
X142625000Y-101950000D01*
X143175000Y-101950000D01*
X143475000Y-101950000D01*
X144025000Y-101950000D01*
X144025000Y-101777171D01*
X144175000Y-101777171D01*
X144175000Y-101950000D01*
X144725000Y-101950000D01*
X145025000Y-101950000D01*
X145575000Y-101950000D01*
X145575000Y-101777171D01*
X145568597Y-101717624D01*
X145568596Y-101717619D01*
X145518354Y-101582912D01*
X145518353Y-101582911D01*
X145432188Y-101467811D01*
X145317088Y-101381646D01*
X145317087Y-101381645D01*
X145182380Y-101331403D01*
X145182375Y-101331402D01*
X145122829Y-101325000D01*
X145025000Y-101325000D01*
X145025000Y-101950000D01*
X144725000Y-101950000D01*
X144725000Y-101325000D01*
X144627171Y-101325000D01*
X144567624Y-101331402D01*
X144567619Y-101331403D01*
X144432912Y-101381645D01*
X144432911Y-101381646D01*
X144317811Y-101467811D01*
X144231646Y-101582911D01*
X144231645Y-101582912D01*
X144181403Y-101717619D01*
X144181402Y-101717624D01*
X144175000Y-101777171D01*
X144025000Y-101777171D01*
X144018597Y-101717624D01*
X144018596Y-101717619D01*
X143968354Y-101582912D01*
X143968353Y-101582911D01*
X143882188Y-101467811D01*
X143767088Y-101381646D01*
X143767087Y-101381645D01*
X143632380Y-101331403D01*
X143632375Y-101331402D01*
X143572829Y-101325000D01*
X143475000Y-101325000D01*
X143475000Y-101950000D01*
X143175000Y-101950000D01*
X143175000Y-101325000D01*
X143077171Y-101325000D01*
X143017624Y-101331402D01*
X143017619Y-101331403D01*
X142882912Y-101381645D01*
X142882911Y-101381646D01*
X142767811Y-101467811D01*
X142681646Y-101582911D01*
X142681645Y-101582912D01*
X142631403Y-101717619D01*
X142631402Y-101717624D01*
X142625000Y-101777171D01*
X142272916Y-101777171D01*
X142263484Y-101717619D01*
X142260646Y-101699695D01*
X142260645Y-101699693D01*
X142203049Y-101586657D01*
X142113342Y-101496950D01*
X142040904Y-101460040D01*
X142004122Y-101416972D01*
X142000500Y-101394106D01*
X142000500Y-100949499D01*
X142022174Y-100897173D01*
X142074500Y-100875499D01*
X142594863Y-100875499D01*
X142594864Y-100875499D01*
X142619991Y-100872585D01*
X142722765Y-100827206D01*
X142802206Y-100747765D01*
X142847585Y-100644991D01*
X142850500Y-100619865D01*
X142850499Y-100330136D01*
X142847585Y-100305009D01*
X142802206Y-100202235D01*
X142802205Y-100202234D01*
X142802204Y-100202231D01*
X142798331Y-100196577D01*
X142799565Y-100195731D01*
X142780623Y-100150000D01*
X142799565Y-100104268D01*
X142798331Y-100103423D01*
X142802204Y-100097768D01*
X142802204Y-100097766D01*
X142802206Y-100097765D01*
X142847585Y-99994991D01*
X142850500Y-99969865D01*
X142850499Y-99680136D01*
X142847585Y-99655009D01*
X142802206Y-99552235D01*
X142802205Y-99552234D01*
X142802204Y-99552231D01*
X142798331Y-99546577D01*
X142799565Y-99545731D01*
X142780623Y-99500000D01*
X142799565Y-99454268D01*
X142798331Y-99453423D01*
X142802204Y-99447768D01*
X142802204Y-99447766D01*
X142802206Y-99447765D01*
X142847585Y-99344991D01*
X142850500Y-99319865D01*
X142850499Y-99030136D01*
X142847585Y-99005009D01*
X142802206Y-98902235D01*
X142802205Y-98902234D01*
X142802204Y-98902231D01*
X142798331Y-98896577D01*
X142799565Y-98895731D01*
X142780623Y-98850000D01*
X142799565Y-98804268D01*
X142798331Y-98803423D01*
X142802204Y-98797768D01*
X142802204Y-98797766D01*
X142802206Y-98797765D01*
X142847585Y-98694991D01*
X142850500Y-98669865D01*
X142850499Y-98380136D01*
X142847585Y-98355009D01*
X142802206Y-98252235D01*
X142722765Y-98172794D01*
X142722764Y-98172793D01*
X142684608Y-98155945D01*
X142645496Y-98114981D01*
X142640500Y-98088251D01*
X142640500Y-97448527D01*
X142662174Y-97396201D01*
X142714500Y-97374527D01*
X142766826Y-97396201D01*
X142779449Y-97413064D01*
X142781646Y-97417088D01*
X142867811Y-97532188D01*
X142982911Y-97618353D01*
X142982912Y-97618354D01*
X143117619Y-97668596D01*
X143117624Y-97668597D01*
X143177171Y-97675000D01*
X143275000Y-97675000D01*
X143575000Y-97675000D01*
X143672829Y-97675000D01*
X143732375Y-97668597D01*
X143732380Y-97668596D01*
X143867087Y-97618354D01*
X143867088Y-97618353D01*
X143982188Y-97532188D01*
X144068353Y-97417088D01*
X144068354Y-97417087D01*
X144118596Y-97282380D01*
X144118597Y-97282375D01*
X144125000Y-97222828D01*
X144125000Y-97050000D01*
X143575000Y-97050000D01*
X143575000Y-97675000D01*
X143275000Y-97675000D01*
X143275000Y-97050000D01*
X142711723Y-97050000D01*
X142682058Y-97062286D01*
X142629733Y-97040610D01*
X142611531Y-97004903D01*
X142610057Y-97005257D01*
X142609379Y-97002432D01*
X142547912Y-96813226D01*
X142547911Y-96813223D01*
X142516900Y-96752356D01*
X142457598Y-96635960D01*
X142453451Y-96630252D01*
X142368873Y-96513836D01*
X142362807Y-96503936D01*
X142303051Y-96386659D01*
X142243218Y-96326826D01*
X142221544Y-96274500D01*
X142243218Y-96222174D01*
X142295544Y-96200500D01*
X142770365Y-96200500D01*
X142822691Y-96222174D01*
G37*
%TD.AperFunction*%
%TD*%
M02*
