%TF.GenerationSoftware,KiCad,Pcbnew,8.0.5*%
%TF.CreationDate,2024-10-26T17:45:27+02:00*%
%TF.ProjectId,LEDDriver,4c454444-7269-4766-9572-2e6b69636164,rev?*%
%TF.SameCoordinates,Original*%
%TF.FileFunction,Copper,L2,Bot*%
%TF.FilePolarity,Positive*%
%FSLAX46Y46*%
G04 Gerber Fmt 4.6, Leading zero omitted, Abs format (unit mm)*
G04 Created by KiCad (PCBNEW 8.0.5) date 2024-10-26 17:45:27*
%MOMM*%
%LPD*%
G01*
G04 APERTURE LIST*
G04 Aperture macros list*
%AMRoundRect*
0 Rectangle with rounded corners*
0 $1 Rounding radius*
0 $2 $3 $4 $5 $6 $7 $8 $9 X,Y pos of 4 corners*
0 Add a 4 corners polygon primitive as box body*
4,1,4,$2,$3,$4,$5,$6,$7,$8,$9,$2,$3,0*
0 Add four circle primitives for the rounded corners*
1,1,$1+$1,$2,$3*
1,1,$1+$1,$4,$5*
1,1,$1+$1,$6,$7*
1,1,$1+$1,$8,$9*
0 Add four rect primitives between the rounded corners*
20,1,$1+$1,$2,$3,$4,$5,0*
20,1,$1+$1,$4,$5,$6,$7,0*
20,1,$1+$1,$6,$7,$8,$9,0*
20,1,$1+$1,$8,$9,$2,$3,0*%
G04 Aperture macros list end*
%TA.AperFunction,EtchedComponent*%
%ADD10C,0.200000*%
%TD*%
%TA.AperFunction,SMDPad,CuDef*%
%ADD11C,1.000000*%
%TD*%
%TA.AperFunction,ComponentPad*%
%ADD12RoundRect,0.250001X0.799999X-0.799999X0.799999X0.799999X-0.799999X0.799999X-0.799999X-0.799999X0*%
%TD*%
%TA.AperFunction,ComponentPad*%
%ADD13RoundRect,0.250001X-0.799999X-0.799999X0.799999X-0.799999X0.799999X0.799999X-0.799999X0.799999X0*%
%TD*%
%TA.AperFunction,ViaPad*%
%ADD14C,0.450000*%
%TD*%
%TA.AperFunction,Conductor*%
%ADD15C,0.150000*%
%TD*%
G04 APERTURE END LIST*
D10*
%TO.C,REF\u002A\u002A*%
X151100000Y-100200000D02*
X151100000Y-103000000D01*
X150700000Y-103400000D01*
X146100000Y-103400000D01*
X145700000Y-103000000D01*
X145700000Y-100200000D01*
X146100000Y-99800000D01*
X150700000Y-99800000D01*
X151100000Y-100200000D01*
%TA.AperFunction,EtchedComponent*%
G36*
X151100000Y-100200000D02*
G01*
X151100000Y-103000000D01*
X150700000Y-103400000D01*
X146100000Y-103400000D01*
X145700000Y-103000000D01*
X145700000Y-100200000D01*
X146100000Y-99800000D01*
X150700000Y-99800000D01*
X151100000Y-100200000D01*
G37*
%TD.AperFunction*%
%TD*%
D11*
%TO.P,TP1,1,1*%
%TO.N,Net-(U1-VCC)*%
X144100000Y-103000000D03*
%TD*%
D12*
%TO.P,J5,1,Pin_1*%
%TO.N,GND*%
X139200000Y-102000000D03*
%TD*%
%TO.P,J4,1,Pin_1*%
%TO.N,Net-(J4-Pin_1)*%
X139200000Y-98000000D03*
%TD*%
D13*
%TO.P,J3,1,Pin_1*%
%TO.N,Net-(D1-K)*%
X153500000Y-102300000D03*
%TD*%
D12*
%TO.P,J2,1,Pin_1*%
%TO.N,Net-(J2-Pin_1)*%
X160800000Y-98000000D03*
%TD*%
%TO.P,J1,1,Pin_1*%
%TO.N,Net-(D1-K)*%
X160800000Y-102000000D03*
%TD*%
D14*
%TO.N,Net-(U1-VCC)*%
X145360000Y-99780000D03*
%TO.N,GND*%
X150800000Y-98300000D03*
X149800000Y-98300000D03*
X144400000Y-96900000D03*
X144100000Y-98200000D03*
X144100000Y-100800000D03*
X144875000Y-102100000D03*
X143325000Y-102100000D03*
X143425000Y-96900000D03*
X144100000Y-99500000D03*
X144700000Y-100100000D03*
X143500000Y-100100000D03*
X144700000Y-98900000D03*
X143500000Y-98900000D03*
X148200000Y-98525000D03*
%TD*%
D15*
%TO.N,Net-(U1-VCC)*%
X144274020Y-103000000D02*
X144100000Y-103000000D01*
X145120000Y-102590000D02*
X145018285Y-102691715D01*
X145320000Y-99876568D02*
X145320000Y-102107158D01*
X145018285Y-102691715D02*
G75*
G02*
X144274020Y-102999999I-744285J744315D01*
G01*
X145320000Y-102107158D02*
G75*
G02*
X145120013Y-102590013I-682800J-42D01*
G01*
X145360000Y-99780000D02*
G75*
G03*
X145319987Y-99876568I96600J-96600D01*
G01*
%TD*%
%TA.AperFunction,Conductor*%
%TO.N,GND*%
G36*
X162005751Y-96201410D02*
G01*
X162080974Y-96213325D01*
X162102992Y-96220479D01*
X162165599Y-96252378D01*
X162184330Y-96265987D01*
X162234012Y-96315669D01*
X162247621Y-96334400D01*
X162279520Y-96397007D01*
X162286674Y-96419025D01*
X162298589Y-96494247D01*
X162299500Y-96505824D01*
X162299500Y-103494175D01*
X162298589Y-103505752D01*
X162286674Y-103580974D01*
X162279520Y-103602992D01*
X162247621Y-103665599D01*
X162234012Y-103684330D01*
X162184330Y-103734012D01*
X162165599Y-103747621D01*
X162102992Y-103779520D01*
X162080974Y-103786674D01*
X162023749Y-103795738D01*
X162005750Y-103798589D01*
X161994176Y-103799500D01*
X150887144Y-103799500D01*
X150834818Y-103777826D01*
X150813144Y-103725500D01*
X150834818Y-103673174D01*
X150845324Y-103664450D01*
X150852127Y-103659790D01*
X150916021Y-103616021D01*
X151316021Y-103216021D01*
X151325767Y-103205814D01*
X151384870Y-103110359D01*
X151405500Y-103000000D01*
X151405500Y-101445735D01*
X152249500Y-101445735D01*
X152249500Y-101445736D01*
X152249500Y-101445741D01*
X152249500Y-103154255D01*
X152249501Y-103154268D01*
X152252353Y-103184695D01*
X152252355Y-103184704D01*
X152297205Y-103312880D01*
X152297207Y-103312883D01*
X152377846Y-103422146D01*
X152377853Y-103422153D01*
X152487116Y-103502792D01*
X152487119Y-103502794D01*
X152615292Y-103547643D01*
X152615299Y-103547645D01*
X152615302Y-103547646D01*
X152645735Y-103550500D01*
X154354264Y-103550499D01*
X154384698Y-103547646D01*
X154504426Y-103505752D01*
X154512880Y-103502794D01*
X154512883Y-103502792D01*
X154560123Y-103467928D01*
X154622150Y-103422150D01*
X154702793Y-103312882D01*
X154725621Y-103247644D01*
X154747643Y-103184707D01*
X154747645Y-103184700D01*
X154747646Y-103184698D01*
X154750500Y-103154265D01*
X154750499Y-101445736D01*
X154747646Y-101415302D01*
X154747643Y-101415292D01*
X154702794Y-101287119D01*
X154702792Y-101287116D01*
X154622153Y-101177853D01*
X154622146Y-101177846D01*
X154578637Y-101145735D01*
X159549500Y-101145735D01*
X159549500Y-101145736D01*
X159549500Y-101145741D01*
X159549500Y-102854255D01*
X159549501Y-102854268D01*
X159552353Y-102884695D01*
X159552355Y-102884704D01*
X159597205Y-103012880D01*
X159597207Y-103012883D01*
X159677846Y-103122146D01*
X159677853Y-103122153D01*
X159787116Y-103202792D01*
X159787119Y-103202794D01*
X159915292Y-103247643D01*
X159915299Y-103247645D01*
X159915302Y-103247646D01*
X159945735Y-103250500D01*
X161654264Y-103250499D01*
X161684698Y-103247646D01*
X161775070Y-103216024D01*
X161812880Y-103202794D01*
X161812883Y-103202792D01*
X161826741Y-103192565D01*
X161922150Y-103122150D01*
X162002793Y-103012882D01*
X162025472Y-102948070D01*
X162047643Y-102884707D01*
X162047645Y-102884700D01*
X162047646Y-102884698D01*
X162050500Y-102854265D01*
X162050499Y-101145736D01*
X162047646Y-101115302D01*
X162047643Y-101115292D01*
X162002794Y-100987119D01*
X162002792Y-100987116D01*
X161922153Y-100877853D01*
X161922146Y-100877846D01*
X161812883Y-100797207D01*
X161812880Y-100797205D01*
X161684707Y-100752356D01*
X161684700Y-100752354D01*
X161677935Y-100751719D01*
X161654265Y-100749500D01*
X161654258Y-100749500D01*
X159945744Y-100749500D01*
X159945731Y-100749501D01*
X159915304Y-100752353D01*
X159915295Y-100752355D01*
X159787119Y-100797205D01*
X159787116Y-100797207D01*
X159677853Y-100877846D01*
X159677846Y-100877853D01*
X159597207Y-100987116D01*
X159597205Y-100987119D01*
X159552356Y-101115292D01*
X159552354Y-101115299D01*
X159552354Y-101115302D01*
X159549500Y-101145735D01*
X154578637Y-101145735D01*
X154512883Y-101097207D01*
X154512880Y-101097205D01*
X154384707Y-101052356D01*
X154384700Y-101052354D01*
X154377935Y-101051719D01*
X154354265Y-101049500D01*
X154354258Y-101049500D01*
X152645744Y-101049500D01*
X152645731Y-101049501D01*
X152615304Y-101052353D01*
X152615295Y-101052355D01*
X152487119Y-101097205D01*
X152487116Y-101097207D01*
X152377853Y-101177846D01*
X152377846Y-101177853D01*
X152297207Y-101287116D01*
X152297205Y-101287119D01*
X152252356Y-101415292D01*
X152252354Y-101415299D01*
X152252354Y-101415302D01*
X152249500Y-101445735D01*
X151405500Y-101445735D01*
X151405500Y-100200000D01*
X151405174Y-100185891D01*
X151379470Y-100076602D01*
X151316021Y-99983979D01*
X150916021Y-99583979D01*
X150905814Y-99574233D01*
X150829174Y-99526780D01*
X150810359Y-99515130D01*
X150700003Y-99494500D01*
X150700000Y-99494500D01*
X146100000Y-99494500D01*
X146099991Y-99494500D01*
X146087301Y-99494793D01*
X146085891Y-99494826D01*
X145999562Y-99515130D01*
X145976602Y-99520530D01*
X145883982Y-99583976D01*
X145883974Y-99583983D01*
X145859075Y-99608882D01*
X145806749Y-99630555D01*
X145754423Y-99608880D01*
X145740820Y-99590157D01*
X145708528Y-99526780D01*
X145613220Y-99431472D01*
X145613219Y-99431471D01*
X145493126Y-99370281D01*
X145493126Y-99370280D01*
X145360000Y-99349196D01*
X145226873Y-99370280D01*
X145226873Y-99370281D01*
X145106780Y-99431471D01*
X145011471Y-99526780D01*
X144950281Y-99646873D01*
X144950280Y-99646873D01*
X144929196Y-99780000D01*
X144950280Y-99913126D01*
X145011471Y-100033219D01*
X145022826Y-100044574D01*
X145044500Y-100096900D01*
X145044500Y-102052616D01*
X145044497Y-102052654D01*
X145044499Y-102103541D01*
X145044143Y-102110793D01*
X145037391Y-102179388D01*
X145034561Y-102193618D01*
X145015616Y-102256079D01*
X145010065Y-102269482D01*
X144979296Y-102327050D01*
X144971236Y-102339113D01*
X144927628Y-102392250D01*
X144922752Y-102397630D01*
X144845355Y-102475030D01*
X144845351Y-102475034D01*
X144826044Y-102494339D01*
X144820665Y-102499213D01*
X144745473Y-102560920D01*
X144691275Y-102577361D01*
X144641326Y-102550661D01*
X144637629Y-102545755D01*
X144628184Y-102532072D01*
X144500856Y-102419269D01*
X144500853Y-102419267D01*
X144500852Y-102419266D01*
X144350225Y-102340210D01*
X144350222Y-102340209D01*
X144185058Y-102299500D01*
X144185056Y-102299500D01*
X144014944Y-102299500D01*
X144014941Y-102299500D01*
X143849777Y-102340209D01*
X143699146Y-102419267D01*
X143699143Y-102419269D01*
X143571816Y-102532071D01*
X143475181Y-102672070D01*
X143414859Y-102831128D01*
X143394355Y-102999996D01*
X143394355Y-103000003D01*
X143414859Y-103168871D01*
X143475181Y-103327929D01*
X143571816Y-103467928D01*
X143665020Y-103550500D01*
X143699148Y-103580734D01*
X143699605Y-103580974D01*
X143850130Y-103659977D01*
X143886390Y-103703485D01*
X143881263Y-103759890D01*
X143837755Y-103796150D01*
X143815740Y-103799500D01*
X138005824Y-103799500D01*
X137994249Y-103798589D01*
X137972244Y-103795103D01*
X137919025Y-103786674D01*
X137897007Y-103779520D01*
X137834400Y-103747621D01*
X137815669Y-103734012D01*
X137765987Y-103684330D01*
X137752378Y-103665599D01*
X137720479Y-103602992D01*
X137713325Y-103580973D01*
X137713287Y-103580736D01*
X137701411Y-103505751D01*
X137700500Y-103494175D01*
X137700500Y-101156939D01*
X137850000Y-101156939D01*
X137850000Y-101850000D01*
X138670791Y-101850000D01*
X138650000Y-101927591D01*
X138650000Y-102072409D01*
X138670791Y-102150000D01*
X137850001Y-102150000D01*
X137850001Y-102843062D01*
X137860612Y-102931439D01*
X137860613Y-102931441D01*
X137916079Y-103072093D01*
X138007434Y-103192564D01*
X138007435Y-103192565D01*
X138127906Y-103283920D01*
X138268555Y-103339385D01*
X138356939Y-103349999D01*
X139050000Y-103349999D01*
X139050000Y-102529209D01*
X139127591Y-102550000D01*
X139272409Y-102550000D01*
X139350000Y-102529209D01*
X139350000Y-103349999D01*
X140043061Y-103349999D01*
X140043062Y-103349998D01*
X140131439Y-103339387D01*
X140131441Y-103339386D01*
X140272093Y-103283920D01*
X140392564Y-103192565D01*
X140392565Y-103192564D01*
X140483920Y-103072093D01*
X140539385Y-102931444D01*
X140550000Y-102843060D01*
X140550000Y-102150000D01*
X139729209Y-102150000D01*
X139750000Y-102072409D01*
X139750000Y-101927591D01*
X139729209Y-101850000D01*
X140549999Y-101850000D01*
X140549999Y-101156939D01*
X140549998Y-101156937D01*
X140539387Y-101068560D01*
X140539386Y-101068558D01*
X140483920Y-100927906D01*
X140392565Y-100807435D01*
X140392564Y-100807434D01*
X140272093Y-100716079D01*
X140131444Y-100660614D01*
X140043060Y-100650000D01*
X139350000Y-100650000D01*
X139350000Y-101470790D01*
X139272409Y-101450000D01*
X139127591Y-101450000D01*
X139050000Y-101470790D01*
X139050000Y-100650000D01*
X138356939Y-100650000D01*
X138356937Y-100650001D01*
X138268560Y-100660612D01*
X138268558Y-100660613D01*
X138127906Y-100716079D01*
X138007435Y-100807434D01*
X138007434Y-100807435D01*
X137916079Y-100927906D01*
X137860614Y-101068555D01*
X137850000Y-101156939D01*
X137700500Y-101156939D01*
X137700500Y-97145735D01*
X137949500Y-97145735D01*
X137949500Y-97145736D01*
X137949500Y-97145741D01*
X137949500Y-98854255D01*
X137949501Y-98854268D01*
X137952353Y-98884695D01*
X137952355Y-98884704D01*
X137997205Y-99012880D01*
X137997207Y-99012883D01*
X138077846Y-99122146D01*
X138077853Y-99122153D01*
X138187116Y-99202792D01*
X138187119Y-99202794D01*
X138315292Y-99247643D01*
X138315299Y-99247645D01*
X138315302Y-99247646D01*
X138345735Y-99250500D01*
X140054264Y-99250499D01*
X140084698Y-99247646D01*
X140084707Y-99247643D01*
X140212880Y-99202794D01*
X140212883Y-99202792D01*
X140322146Y-99122153D01*
X140322146Y-99122152D01*
X140322150Y-99122150D01*
X140402793Y-99012882D01*
X140447646Y-98884698D01*
X140450500Y-98854265D01*
X140450499Y-97145736D01*
X140450499Y-97145735D01*
X159549500Y-97145735D01*
X159549500Y-97145736D01*
X159549500Y-97145741D01*
X159549500Y-98854255D01*
X159549501Y-98854268D01*
X159552353Y-98884695D01*
X159552355Y-98884704D01*
X159597205Y-99012880D01*
X159597207Y-99012883D01*
X159677846Y-99122146D01*
X159677853Y-99122153D01*
X159787116Y-99202792D01*
X159787119Y-99202794D01*
X159915292Y-99247643D01*
X159915299Y-99247645D01*
X159915302Y-99247646D01*
X159945735Y-99250500D01*
X161654264Y-99250499D01*
X161684698Y-99247646D01*
X161684707Y-99247643D01*
X161812880Y-99202794D01*
X161812883Y-99202792D01*
X161922146Y-99122153D01*
X161922146Y-99122152D01*
X161922150Y-99122150D01*
X162002793Y-99012882D01*
X162047646Y-98884698D01*
X162050500Y-98854265D01*
X162050499Y-97145736D01*
X162047646Y-97115302D01*
X162047643Y-97115292D01*
X162002794Y-96987119D01*
X162002792Y-96987116D01*
X161922153Y-96877853D01*
X161922146Y-96877846D01*
X161812883Y-96797207D01*
X161812880Y-96797205D01*
X161684707Y-96752356D01*
X161684700Y-96752354D01*
X161677935Y-96751719D01*
X161654265Y-96749500D01*
X161654258Y-96749500D01*
X159945744Y-96749500D01*
X159945731Y-96749501D01*
X159915304Y-96752353D01*
X159915295Y-96752355D01*
X159787119Y-96797205D01*
X159787116Y-96797207D01*
X159677853Y-96877846D01*
X159677846Y-96877853D01*
X159597207Y-96987116D01*
X159597205Y-96987119D01*
X159552356Y-97115292D01*
X159552354Y-97115299D01*
X159552354Y-97115302D01*
X159549500Y-97145735D01*
X140450499Y-97145735D01*
X140447646Y-97115302D01*
X140447643Y-97115292D01*
X140402794Y-96987119D01*
X140402792Y-96987116D01*
X140322153Y-96877853D01*
X140322146Y-96877846D01*
X140212883Y-96797207D01*
X140212880Y-96797205D01*
X140084707Y-96752356D01*
X140084700Y-96752354D01*
X140077935Y-96751719D01*
X140054265Y-96749500D01*
X140054258Y-96749500D01*
X138345744Y-96749500D01*
X138345731Y-96749501D01*
X138315304Y-96752353D01*
X138315295Y-96752355D01*
X138187119Y-96797205D01*
X138187116Y-96797207D01*
X138077853Y-96877846D01*
X138077846Y-96877853D01*
X137997207Y-96987116D01*
X137997205Y-96987119D01*
X137952356Y-97115292D01*
X137952354Y-97115299D01*
X137952354Y-97115302D01*
X137949500Y-97145735D01*
X137700500Y-97145735D01*
X137700500Y-96505824D01*
X137701411Y-96494248D01*
X137706817Y-96460118D01*
X137713325Y-96419023D01*
X137720479Y-96397007D01*
X137752380Y-96334397D01*
X137765984Y-96315672D01*
X137815672Y-96265984D01*
X137834397Y-96252380D01*
X137897008Y-96220478D01*
X137919023Y-96213325D01*
X137994248Y-96201410D01*
X138005824Y-96200500D01*
X138039882Y-96200500D01*
X161960118Y-96200500D01*
X161994176Y-96200500D01*
X162005751Y-96201410D01*
G37*
%TD.AperFunction*%
%TD*%
M02*
